<?xml version="1.0" encoding="UTF-8"?>
<svg width="283px" height="287px" viewBox="0 0 283 287" version="1.1" xmlns="http://www.w3.org/2000/svg" xmlns:xlink="http://www.w3.org/1999/xlink">
    <!-- Generator: Sketch 40.3 (33839) - http://www.bohemiancoding.com/sketch -->
    <title>bg-price-bottom</title>
    <desc>Created with Sketch.</desc>
    <defs></defs>
    <g id="Page-1" stroke="none" stroke-width="1" fill="none" fill-rule="evenodd" opacity="0.100000001">
        <g id="Desktop-HD" transform="translate(-101.000000, -3158.000000)" fill="#000000">
            <g id="bg-price-bottom" transform="translate(242.500000, 3302.000000) scale(-1, -1) translate(-242.500000, -3302.000000) translate(101.000000, 3158.000000)">
                <g id="Group">
                    <path d="M91.3658833,101.689167 C89.5003833,103.6025 89.5482167,106.616 91.4137167,108.4815 C92.32255,109.390333 93.5662167,109.868667 94.76205,109.868667 C96.0057167,109.868667 97.2493833,109.390333 98.1582167,108.433667 C100.023717,106.563383 100.023717,103.549883 98.1582167,101.689167 C96.2448833,99.8236667 93.2266,99.8236667 91.3658833,101.689167 L91.3658833,101.689167 Z" id="Shape"></path>
                    <path d="M77.7286,223.712 C75.8631,225.582283 75.8631,228.638833 77.7286,230.504333 C78.6374333,231.413167 79.8811,231.8915 81.0769333,231.8915 C82.3206,231.8915 83.5642667,231.413167 84.4731,230.504333 C86.3386,228.638833 86.3386,225.582283 84.4731,223.712 C82.6076,221.8465 79.5988833,221.8465 77.7286,223.712 L77.7286,223.712 Z" id="Shape"></path>
                    <path d="M77.9199333,115.273833 C76.0544333,117.144117 76.0544333,120.200667 77.9199333,122.066167 C78.8766,122.975 80.0724333,123.453333 81.2682667,123.453333 C82.5119333,123.453333 83.7556,122.975 84.7122667,122.018333 C86.5299333,120.152833 86.5299333,117.0915 84.6644333,115.273833 C82.8037167,113.408333 79.7376,113.408333 77.9199333,115.273833 L77.9199333,115.273833 Z" id="Shape"></path>
                    <path d="M91.2702167,237.248833 C89.4047167,239.119117 89.4047167,242.175667 91.2702167,244.041167 C92.17905,244.95 93.4227167,245.428333 94.61855,245.428333 C95.8622167,245.428333 97.1058833,244.95 98.0147167,244.041167 C99.8802167,242.175667 99.8802167,239.119117 98.0147167,237.248833 C96.1492167,235.383333 93.1309333,235.383333 91.2702167,237.248833 L91.2702167,237.248833 Z" id="Shape"></path>
                    <path d="M118.147767,251.072667 C116.3301,252.981217 116.377933,255.994717 118.243433,257.812383 C119.2001,258.721217 120.395933,259.19955 121.591767,259.19955 C122.835433,259.19955 124.0791,258.721217 125.035767,257.716717 C126.853433,255.851217 126.853433,252.832933 124.9401,250.972217 C123.026767,249.159333 120.013267,249.159333 118.147767,251.072667 L118.147767,251.072667 Z" id="Shape"></path>
                    <path d="M104.8501,88.1045 C102.9846,90.01305 102.9846,93.0313333 104.897933,94.8968333 C105.806767,95.8008833 107.0026,96.284 108.246267,96.284 C109.489933,96.284 110.685767,95.8008833 111.642433,94.849 C113.507933,92.9787167 113.507933,89.9652167 111.5946,88.1045 C109.7291,86.2342167 106.720383,86.2342167 104.8501,88.1045 L104.8501,88.1045 Z" id="Shape"></path>
                    <path d="M104.802267,250.785667 C102.936767,252.651167 102.936767,255.66945 104.802267,257.578 C105.7111,258.486833 106.954767,258.965167 108.1506,258.965167 C109.394267,258.965167 110.5901,258.486833 111.546767,257.578 C113.412267,255.66945 113.412267,252.651167 111.546767,250.785667 C109.681267,248.920167 106.619933,248.920167 104.802267,250.785667 L104.802267,250.785667 Z" id="Shape"></path>
                    <path d="M64.4309333,128.853717 C62.5654333,130.724 62.5654333,133.78055 64.4787667,135.64605 C65.3876,136.554883 66.5834333,137.033217 67.8271,137.033217 C69.0707667,137.033217 70.2666,136.554883 71.2232667,135.598217 C73.0887667,133.732717 73.0887667,130.719217 71.1754333,128.853717 C69.3099333,126.993 66.2964333,126.993 64.4309333,128.853717 L64.4309333,128.853717 Z" id="Shape"></path>
                    <path d="M37.1181,183.149333 C35.2526,185.014833 35.2526,188.028333 37.1181,189.893833 C38.0747667,190.845717 39.2706,191.328833 40.5142667,191.328833 C41.7579333,191.328833 42.9537667,190.845717 43.9104333,189.893833 C45.7759333,188.02355 45.7759333,185.01005 43.9104333,183.149333 C42.0449333,181.27905 38.9836,181.27905 37.1181,183.149333 L37.1181,183.149333 Z" id="Shape"></path>
                    <path d="M37.5007667,156.027833 C35.6352667,157.936383 35.6352667,160.949883 37.5007667,162.820167 C38.4574333,163.724217 39.6532667,164.207333 40.8969333,164.207333 C42.0927667,164.207333 43.3364333,163.724217 44.2452667,162.76755 C46.1107667,160.90205 46.1107667,157.88855 44.2452667,156.027833 C42.3797667,154.162333 39.3184333,154.162333 37.5007667,156.027833 L37.5007667,156.027833 Z" id="Shape"></path>
                    <path d="M24.0117667,169.6125 C22.1462667,171.52105 22.1462667,174.539333 24.0117667,176.404833 C24.9684333,177.308883 26.1642667,177.792 27.4079333,177.792 C28.6037667,177.792 29.8474333,177.308883 30.8041,176.357 C32.6696,174.486717 32.6217667,171.473217 30.7562667,169.6125 C28.8907667,167.742217 25.8772667,167.742217 24.0117667,169.6125 L24.0117667,169.6125 Z" id="Shape"></path>
                    <path d="M118.3391,74.5198333 C116.4736,76.4283833 116.4736,79.4418833 118.3391,81.3121667 C119.295767,82.2162167 120.4916,82.6993333 121.687433,82.6993333 C122.9311,82.6993333 124.174767,82.2162167 125.131433,81.2643333 C126.9491,79.39405 126.9491,76.38055 125.0836,74.5198333 C123.2181,72.64955 120.16155,72.64955 118.3391,74.5198333 L118.3391,74.5198333 Z" id="Shape"></path>
                    <path d="M50.6549333,196.686167 C48.7894333,198.551667 48.7894333,201.565167 50.6549333,203.425883 C51.6116,204.38255 52.8074333,204.81305 54.0511,204.81305 C55.2469333,204.81305 56.4906,204.38255 57.4472667,203.425883 C59.3127667,201.560383 59.3127667,198.546883 57.4472667,196.686167 C55.5339333,194.820667 52.5204333,194.820667 50.6549333,196.686167 L50.6549333,196.686167 Z" id="Shape"></path>
                    <path d="M64.1917667,210.223 C62.3262667,212.0885 62.3262667,215.102 64.1917667,216.962717 C65.1484333,217.919383 66.3442667,218.349883 67.5879333,218.349883 C68.7837667,218.349883 70.0274333,217.919383 70.9362667,216.962717 C72.8017667,215.097217 72.8017667,212.083717 70.9362667,210.223 C69.0707667,208.3575 66.06205,208.3575 64.1917667,210.223 L64.1917667,210.223 Z" id="Shape"></path>
                    <path d="M50.9419333,142.438383 C49.0764333,144.351717 49.1242667,147.365217 50.9897667,149.2355 C51.8986,150.13955 53.1422667,150.622667 54.3381,150.622667 C55.5817667,150.622667 56.8254333,150.13955 57.7342667,149.182883 C59.5997667,147.317383 59.5997667,144.303883 57.6864333,142.438383 C55.8209333,140.577667 52.8074333,140.577667 50.9419333,142.438383 L50.9419333,142.438383 Z" id="Shape"></path>
                    <path d="M144.8866,223.664167 C143.0211,225.529667 143.068933,228.591 144.982267,230.408667 C145.8911,231.312717 147.086933,231.748 148.282767,231.748 C149.526433,231.748 150.7701,231.264883 151.726767,230.308217 C153.544433,228.442717 153.544433,225.386167 151.6311,223.5685 C149.770383,221.703 146.704267,221.74605 144.8866,223.664167 L144.8866,223.664167 Z" id="Shape"></path>
                    <path d="M211.6141,155.119 C209.7486,156.9845 209.796433,160.045833 211.709767,161.8635 C212.6186,162.76755 213.814433,163.250667 215.0581,163.250667 C216.301767,163.250667 217.545433,162.76755 218.454267,161.815667 C220.319767,159.902333 220.271933,156.841 218.3586,155.023333 C216.4931,153.157833 213.4796,153.200883 211.6141,155.119 L211.6141,155.119 Z" id="Shape"></path>
                    <path d="M184.9231,182.5275 C183.0576,184.43605 183.105433,187.44955 185.018767,189.267217 C185.9276,190.17605 187.123433,190.654383 188.319267,190.654383 C189.562933,190.654383 190.8066,190.17605 191.763267,189.219383 C193.628767,187.310833 193.580933,184.244717 191.6676,182.42705 C189.8021,180.566333 186.740767,180.614167 184.9231,182.5275 L184.9231,182.5275 Z" id="Shape"></path>
                    <path d="M198.2686,168.847167 C196.4031,170.712667 196.450933,173.726167 198.364267,175.591667 C199.2731,176.495717 200.468933,176.931 201.664767,176.931 C202.956267,176.931 204.199933,176.447883 205.108767,175.491217 C206.974267,173.582667 206.926433,170.569167 205.0131,168.746717 C203.1476,166.886 200.09105,166.92905 198.2686,168.847167 L198.2686,168.847167 Z" id="Shape"></path>
                    <path d="M224.9596,141.390833 C223.0941,143.304167 223.141933,146.317667 225.055267,148.183167 C225.9641,149.092 227.159933,149.5225 228.4036,149.5225 C229.647267,149.5225 230.890933,149.044167 231.799767,148.0875 C233.665267,146.174167 233.617433,143.160667 231.7041,141.295167 C229.8386,139.4775 226.777267,139.525333 224.9596,141.390833 L224.9596,141.390833 Z" id="Shape"></path>
                    <circle id="Oval" cx="239.55355" cy="91.8833333" r="4.78333333"></circle>
                    <path d="M131.5411,237.3445 C129.6756,239.25305 129.723433,242.26655 131.636767,244.136833 C132.5456,245.040883 133.741433,245.471383 134.937267,245.471383 C136.180933,245.471383 137.4246,244.99305 138.381267,244.036383 C140.198933,242.127833 140.198933,239.114333 138.2856,237.291883 C136.372267,235.431167 133.358767,235.479 131.5411,237.3445 L131.5411,237.3445 Z" id="Shape"></path>
                    <ellipse id="Oval" cx="239.55355" cy="130.15" rx="4.78333333" ry="4.78333333"></ellipse>
                    <circle id="Oval" cx="239.55355" cy="111.016667" r="4.78333333"></circle>
                    <path d="M158.236883,209.936 C156.371383,211.849333 156.419217,214.862833 158.33255,216.728333 C159.241383,217.637167 160.437217,218.067667 161.63305,218.067667 C162.876717,218.067667 164.120383,217.589333 165.07705,216.632667 C166.94255,214.719333 166.894717,211.705833 164.981383,209.840333 C163.063267,208.022667 160.049767,208.0705 158.236883,209.936 L158.236883,209.936 Z" id="Shape"></path>
                    <path d="M188.9411,44.05 C188.9411,41.4191667 186.7886,39.2666667 184.157767,39.2666667 C181.4791,39.2666667 179.374433,41.4191667 179.374433,44.05 C179.374433,46.6808333 181.4791,48.8333333 184.157767,48.8333333 C186.7886,48.8333333 188.9411,46.6808333 188.9411,44.05 L188.9411,44.05 Z" id="Shape"></path>
                    <path d="M131.780267,60.9351667 C129.914767,62.8006667 129.9626,65.8572167 131.8281,67.7275 C132.736933,68.63155 133.9806,69.1146667 135.176433,69.1146667 C136.4201,69.1146667 137.663767,68.63155 138.5726,67.6748833 C140.4381,65.8093833 140.4381,62.7958833 138.5726,60.9351667 C136.659267,59.0696667 133.645767,59.0696667 131.780267,60.9351667 L131.780267,60.9351667 Z" id="Shape"></path>
                    <path d="M145.27405,47.3457167 C143.40855,49.25905 143.40855,52.27255 145.321883,54.13805 C146.230717,55.0468833 147.474383,55.5252167 148.670217,55.5252167 C149.913883,55.5252167 151.109717,55.0468833 152.066383,54.0902167 C153.931883,52.2247167 153.931883,49.2112167 152.01855,47.3457167 C150.15305,45.485 147.134767,45.485 145.27405,47.3457167 L145.27405,47.3457167 Z" id="Shape"></path>
                    <path d="M165.024433,39.2666667 C162.345767,39.2666667 160.2411,41.4191667 160.2411,44.05 C160.2411,46.6808333 162.345767,48.8333333 165.024433,48.8333333 C167.655267,48.8333333 169.807767,46.6808333 169.807767,44.05 C169.807767,41.4191667 167.655267,39.2666667 165.024433,39.2666667 L165.024433,39.2666667 Z" id="Shape"></path>
                    <path d="M171.582383,196.250883 C169.716883,198.121167 169.764717,201.177717 171.67805,202.995383 C172.586883,203.904217 173.782717,204.334717 174.97855,204.334717 C176.222217,204.334717 177.465883,203.856383 178.42255,202.899717 C180.240217,201.029433 180.240217,197.972883 178.326883,196.155217 C176.461383,194.2945 173.395267,194.342333 171.582383,196.250883 L171.582383,196.250883 Z" id="Shape"></path>
                    <path d="M281.202033,2.40151667 C279.33175,0.531233333 276.308683,0.531233333 274.4384,2.40151667 L256.7018,20.1333333 L145.336233,20.1333333 L5.32806667,161.294283 C2.13758333,164.479983 0.3821,168.7228 0.3821,173.2287 C0.3821,177.7346 2.13758333,181.977417 5.32806667,185.163117 L103.223767,283.058817 C106.509917,286.344967 110.8197,287.98565 115.13905,287.98565 C119.47275,287.98565 123.816017,286.330617 127.13565,283.010983 L263.465433,142.998033 L263.465433,26.8969667 L281.19725,9.16515 C283.067533,7.29486667 283.067533,4.2718 281.202033,2.40151667 L281.202033,2.40151667 Z M253.90355,139.113967 L120.328967,276.295183 C117.482883,279.14605 112.84305,279.14605 109.9874,276.295183 L12.0917,178.399483 C10.7093167,177.0171 9.94876667,175.1803 9.94876667,173.2287 C9.94876667,171.2771 10.7093167,169.4403 12.10605,168.043567 L149.32075,29.7 L247.139917,29.7 L224.022067,52.81785 C220.23845,50.3113833 215.7182,48.8333333 210.85355,48.8333333 C197.6659,48.8333333 186.936883,59.56235 186.936883,72.75 C186.936883,85.93765 197.6659,96.6666667 210.85355,96.6666667 C224.0412,96.6666667 234.770217,85.93765 234.770217,72.75 C234.770217,67.88535 233.292167,63.3651 230.7857,59.5814833 L253.90355,36.4636333 L253.90355,139.113967 L253.90355,139.113967 Z M225.20355,72.75 C225.20355,80.6616333 218.765183,87.1 210.85355,87.1 C202.941917,87.1 196.50355,80.6616333 196.50355,72.75 C196.50355,64.8383667 202.941917,58.4 210.85355,58.4 C213.06345,58.4 215.12985,58.9453 217.000133,59.8397833 L207.471733,69.3681833 C205.60145,71.2384667 205.60145,74.2615333 207.471733,76.1318167 C208.404483,77.0645667 209.629017,77.5333333 210.85355,77.5333333 C212.078083,77.5333333 213.302617,77.0645667 214.235367,76.1318167 L223.763767,66.6034167 C224.65825,68.4737 225.20355,70.5401 225.20355,72.75 L225.20355,72.75 Z" id="Shape"></path>
                </g>
            </g>
        </g>
    </g>
</svg>