<?xml version="1.0" encoding="UTF-8"?>
<svg width="15px" height="21px" viewBox="0 0 15 21" version="1.1" xmlns="http://www.w3.org/2000/svg" xmlns:xlink="http://www.w3.org/1999/xlink">
    <!-- Generator: Sketch 40.3 (33839) - http://www.bohemiancoding.com/sketch -->
    <title>icon-location</title>
    <desc>Created with Sketch.</desc>
    <defs></defs>
    <g id="Page-1" stroke="none" stroke-width="1" fill="none" fill-rule="evenodd">
        <g id="Desktop-HD" transform="translate(-195.000000, -4987.000000)" fill="#000000">
            <g id="icon-location" transform="translate(195.000000, 4987.000000)">
                <g id="Group">
                    <path d="M7.52192308,4.61538462 C6.03769231,4.61538462 4.82961538,5.82346154 4.82961538,7.30769231 C4.82961538,8.79192308 6.03769231,10 7.52192308,10 C9.00615385,10 10.2142308,8.79192308 10.2142308,7.30769231 C10.2142308,5.82346154 9.00615385,4.61538462 7.52192308,4.61538462 L7.52192308,4.61538462 Z M7.52192308,9.23076923 C6.46153846,9.23076923 5.59884615,8.36807692 5.59884615,7.30769231 C5.59884615,6.24730769 6.46153846,5.38461538 7.52192308,5.38461538 C8.58230769,5.38461538 9.445,6.24730769 9.445,7.30769231 C9.445,8.36807692 8.58230769,9.23076923 7.52192308,9.23076923 L7.52192308,9.23076923 Z" id="Shape"></path>
                    <path d="M12.6692308,2.16038462 C11.2761538,0.767307692 9.42384615,0 7.45384615,0 C5.48346154,0 3.63153846,0.767307692 2.23846154,2.16038462 C-0.339615385,4.73807692 -0.66,9.58807692 1.54461538,12.5265385 L7.45384615,21.0603846 L13.3542308,12.5384615 C15.5676923,9.58807692 15.2473077,4.73807692 12.6692308,2.16038462 L12.6692308,2.16038462 Z M12.7303846,12.0888462 L7.45384615,19.7088462 L2.16884615,12.0769231 C0.169230769,9.41076923 0.455769231,5.03076923 2.78269231,2.70423077 C4.03038462,1.45653846 5.68923077,0.769230769 7.45384615,0.769230769 C9.21846154,0.769230769 10.8773077,1.45653846 12.1253846,2.70423077 C14.4523077,5.03076923 14.7388462,9.41076923 12.7303846,12.0888462 L12.7303846,12.0888462 Z" id="Shape"></path>
                </g>
            </g>
        </g>
    </g>
</svg>