<?xml version="1.0" encoding="UTF-8"?>
<svg width="70px" height="70px" viewBox="0 0 70 70" version="1.1" xmlns="http://www.w3.org/2000/svg" xmlns:xlink="http://www.w3.org/1999/xlink">
    <!-- Generator: Sketch 40.3 (33839) - http://www.bohemiancoding.com/sketch -->
    <title>icon-checkbox</title>
    <desc>Created with Sketch.</desc>
    <defs></defs>
    <g id="Page-1" stroke="none" stroke-width="1" fill="none" fill-rule="evenodd">
        <g id="Desktop-HD" transform="translate(-1085.000000, -2207.000000)">
            <g id="Group-3-Copy-11" transform="translate(977.000000, 2207.000000)">
                <g id="icon-checkbox" transform="translate(108.000000, 0.000000)">
                    <rect id="Rectangle-5" fill="#E85C4D" x="0" y="0" width="70" height="70"></rect>
                    <g id="check" transform="translate(17.000000, 17.000000)" fill="#FFFFFF">
                        <g id="Group">
                            <path d="M32.1942857,0 L3.79102041,0 C1.69714286,0 0,1.7044898 0,3.79102041 L0,32.1942857 C0,34.2881633 1.7044898,35.9853061 3.79102041,35.9853061 L32.1942857,35.9853061 C34.2881633,35.9853061 35.9853061,34.2808163 35.9853061,32.1942857 L35.9853061,3.79102041 C35.9853061,1.7044898 34.2808163,0 32.1942857,0 L32.1942857,0 Z M34.1853061,32.1942857 C34.1853061,33.2889796 33.2889796,34.1853061 32.1942857,34.1853061 L3.79102041,34.1853061 C2.69632653,34.1853061 1.8,33.2889796 1.8,32.1942857 L1.8,3.79102041 C1.8,2.69632653 2.69632653,1.8 3.79102041,1.8 L32.1942857,1.8 C33.2889796,1.8 34.1853061,2.69632653 34.1853061,3.79102041 L34.1853061,32.1942857 L34.1853061,32.1942857 Z" id="Shape"></path>
                            <path d="M23.4734694,13.0702041 L15.4873469,21.004898 L12.5118367,18.0146939 C12.1591837,17.6620408 11.5934694,17.6620408 11.2408163,18.0146939 C10.8881633,18.3673469 10.8881633,18.9330612 11.2408163,19.2857143 L14.8481633,22.915102 C15.0171429,23.0840816 15.244898,23.1795918 15.4873469,23.1795918 L15.4873469,23.1795918 C15.722449,23.1795918 15.9502041,23.0840816 16.1191837,22.915102 L24.7444898,14.3412245 C25.0971429,13.9885714 25.0971429,13.4228571 24.7444898,13.0702041 C24.3918367,12.717551 23.8261224,12.717551 23.4734694,13.0702041 L23.4734694,13.0702041 Z" id="Shape"></path>
                        </g>
                    </g>
                </g>
            </g>
        </g>
    </g>
</svg>