<?xml version="1.0" encoding="UTF-8"?>
<svg width="70px" height="70px" viewBox="0 0 70 70" version="1.1" xmlns="http://www.w3.org/2000/svg" xmlns:xlink="http://www.w3.org/1999/xlink">
    <!-- Generator: Sketch 40.3 (33839) - http://www.bohemiancoding.com/sketch -->
    <title>icon-signal</title>
    <desc>Created with Sketch.</desc>
    <defs></defs>
    <g id="Page-1" stroke="none" stroke-width="1" fill="none" fill-rule="evenodd">
        <g id="Desktop-HD" transform="translate(-1085.000000, -2038.000000)">
            <g id="Group-3-Copy-10" transform="translate(977.000000, 2038.000000)">
                <g id="icon-signal" transform="translate(108.000000, 0.000000)">
                    <rect id="Rectangle-5" fill="#E85C4D" x="0" y="0" width="70" height="70"></rect>
                    <g id="wifi" transform="translate(12.000000, 18.000000)" fill="#FFFFFF">
                        <g id="Group">
                            <path d="M46.34,10.3489024 C40.1944242,4.165 32.0090909,0.759756098 23.294303,0.759756098 C14.5795152,0.759756098 6.3950303,4.16414634 0.248606061,10.3489024 C-0.0831515152,10.6826829 -0.0831515152,11.2221951 0.248606061,11.5559756 C0.580363636,11.8897561 1.11660606,11.8897561 1.44836364,11.5559756 C7.27406061,5.69390244 15.0326061,2.46621951 23.294303,2.46621951 C31.556,2.46621951 39.3145455,5.69390244 45.1402424,11.555122 C45.305697,11.7215854 45.5229091,11.8052439 45.7401212,11.8052439 C45.9573333,11.8052439 46.1745455,11.7215854 46.34,11.555122 C46.6717576,11.2221951 46.6717576,10.6818293 46.34,10.3489024 L46.34,10.3489024 Z" id="Shape"></path>
                            <path d="M5.236,15.3658537 C4.90424242,15.6996341 4.90424242,16.2391463 5.236,16.5729268 C5.40145455,16.7393902 5.61866667,16.8230488 5.83587879,16.8230488 C6.05309091,16.8230488 6.27030303,16.7393902 6.43575758,16.5729268 C15.7309091,7.2202439 30.856,7.2202439 40.152,16.5729268 C40.4837576,16.9067073 41.02,16.9067073 41.3517576,16.5729268 C41.6835152,16.2391463 41.6835152,15.6996341 41.3517576,15.3658537 C31.3956364,5.34902439 15.1938182,5.34731707 5.236,15.3658537 L5.236,15.3658537 Z" id="Shape"></path>
                            <path d="M23.294303,14.9458537 C18.3518788,14.9458537 13.7106667,16.8776829 10.2242424,20.3845122 C9.89248485,20.7182927 9.89248485,21.2578049 10.2242424,21.5915854 C10.556,21.9253659 11.0922424,21.9253659 11.424,21.5915854 C14.589697,18.407439 18.8049697,16.6531707 23.294303,16.6531707 C27.7836364,16.6531707 31.9989091,18.407439 35.1646061,21.5915854 C35.3300606,21.7580488 35.5472727,21.8417073 35.7644848,21.8417073 C35.981697,21.8417073 36.1989091,21.7580488 36.3643636,21.5915854 C36.6961212,21.2578049 36.6961212,20.7182927 36.3643636,20.3845122 C32.8787879,16.8776829 28.2367273,14.9458537 23.294303,14.9458537 L23.294303,14.9458537 Z" id="Shape"></path>
                            <path d="M23.294303,22.9770732 C20.2295758,22.9770732 17.7358788,25.4859756 17.7358788,28.5702439 C17.7358788,31.6545122 20.2295758,34.1634146 23.294303,34.1634146 C26.3598788,34.1634146 28.8535758,31.6545122 28.8535758,28.5702439 C28.8535758,25.4859756 26.3598788,22.9770732 23.294303,22.9770732 L23.294303,22.9770732 Z M23.294303,32.4552439 C21.1646061,32.4552439 19.4328485,30.7120732 19.4328485,28.5693902 C19.4328485,26.4267073 21.1654545,24.6835366 23.294303,24.6835366 C25.4231515,24.6835366 27.1566061,26.4267073 27.1566061,28.5693902 C27.1566061,30.7120732 25.424,32.4552439 23.294303,32.4552439 L23.294303,32.4552439 Z" id="Shape"></path>
                        </g>
                    </g>
                </g>
            </g>
        </g>
    </g>
</svg>