<?xml version="1.0" encoding="UTF-8"?>
<svg width="70px" height="70px" viewBox="0 0 70 70" version="1.1" xmlns="http://www.w3.org/2000/svg" xmlns:xlink="http://www.w3.org/1999/xlink">
    <!-- Generator: Sketch 40.3 (33839) - http://www.bohemiancoding.com/sketch -->
    <title>icon-support</title>
    <desc>Created with Sketch.</desc>
    <defs></defs>
    <g id="Page-1" stroke="none" stroke-width="1" fill="none" fill-rule="evenodd">
        <g id="Desktop-HD" transform="translate(-685.000000, -2207.000000)">
            <g id="Group-3-Copy-9" transform="translate(577.000000, 2207.000000)">
                <g id="icon-support" transform="translate(108.000000, 0.000000)">
                    <rect id="Rectangle-5" fill="#E85C4D" x="0" y="0" width="70" height="70"></rect>
                    <g id="support" transform="translate(13.000000, 14.000000)" fill="#FFFFFF">
                        <g id="Group">
                            <path d="M38.5714286,16.1116071 C38.5714286,7.19196429 31.3794643,0 22.5,0 C13.6205357,0 6.42857143,7.19196429 6.42857143,16.0714286 C6.42857143,16.0714286 6.42857143,16.0714286 6.42857143,16.1116071 C2.85267857,16.3125 0,19.2857143 0,22.9017857 L0,23.7053571 C0,27.4821429 3.05357143,30.5357143 6.83035714,30.5357143 L7.19196429,30.5357143 L10.0446429,35.0758929 C12.0535714,38.2901786 15.46875,40.1785714 19.2455357,40.1785714 L19.8080357,40.1785714 C20.1696429,41.5446429 21.4151786,42.5892857 22.9017857,42.5892857 C24.6696429,42.5892857 26.1160714,41.1428571 26.1160714,39.375 C26.1160714,37.6071429 24.6696429,36.1607143 22.9017857,36.1607143 C21.4151786,36.1607143 20.1696429,37.2053571 19.8080357,38.5714286 L19.2455357,38.5714286 C16.03125,38.5714286 13.0982143,36.9241071 11.4107143,34.1919643 L9.08035714,30.5357143 L9.64285714,30.5357143 C10.5267857,30.5357143 11.25,29.8125 11.25,28.9285714 L11.25,17.6785714 C11.25,16.7946429 10.5267857,16.0714286 9.64285714,16.0714286 L8.03571429,16.0714286 C8.03571429,8.07589286 14.5044643,1.60714286 22.5,1.60714286 C30.4955357,1.60714286 36.9642857,8.07589286 36.9642857,16.0714286 L35.3571429,16.0714286 C34.4732143,16.0714286 33.75,16.7946429 33.75,17.6785714 L33.75,28.9285714 C33.75,29.8125 34.4732143,30.5357143 35.3571429,30.5357143 L38.1696429,30.5357143 C41.9464286,30.5357143 45,27.4821429 45,23.7053571 L45,22.9017857 C45,19.2857143 42.1473214,16.3125 38.5714286,16.1116071 L38.5714286,16.1116071 Z M22.9017857,37.7678571 C23.7857143,37.7678571 24.5089286,38.4910714 24.5089286,39.375 C24.5089286,40.2589286 23.7857143,40.9821429 22.9017857,40.9821429 C22.0178571,40.9821429 21.2946429,40.2589286 21.2946429,39.375 C21.2946429,38.4910714 22.0178571,37.7678571 22.9017857,37.7678571 L22.9017857,37.7678571 Z M9.64285714,17.6785714 L9.64285714,28.9285714 L6.83035714,28.9285714 C3.9375,28.9285714 1.60714286,26.5982143 1.60714286,23.7053571 L1.60714286,22.9017857 C1.60714286,20.0089286 3.9375,17.6785714 6.83035714,17.6785714 L9.64285714,17.6785714 L9.64285714,17.6785714 Z M43.3928571,23.7053571 C43.3928571,26.5982143 41.0625,28.9285714 38.1696429,28.9285714 L35.3571429,28.9285714 L35.3571429,17.6785714 L38.1696429,17.6785714 C41.0625,17.6785714 43.3928571,20.0089286 43.3928571,22.9017857 L43.3928571,23.7053571 L43.3928571,23.7053571 Z" id="Shape"></path>
                        </g>
                    </g>
                </g>
            </g>
        </g>
    </g>
</svg>