<?xml version="1.0" encoding="UTF-8"?>
<svg width="70px" height="70px" viewBox="0 0 70 70" version="1.1" xmlns="http://www.w3.org/2000/svg" xmlns:xlink="http://www.w3.org/1999/xlink">
    <!-- Generator: Sketch 40.3 (33839) - http://www.bohemiancoding.com/sketch -->
    <title>icon-key</title>
    <desc>Created with Sketch.</desc>
    <defs></defs>
    <g id="Page-1" stroke="none" stroke-width="1" fill="none" fill-rule="evenodd">
        <g id="Desktop-HD" transform="translate(-1085.000000, -1484.000000)">
            <g id="Group-3-Copy-2" transform="translate(977.000000, 1484.000000)">
                <g id="icon-key" transform="translate(108.000000, 0.000000)">
                    <rect id="Rectangle-5" fill="#E85C4D" x="0" y="0" width="70" height="70"></rect>
                    <g id="key" transform="translate(12.000000, 14.000000)" fill="#FFFFFF">
                        <g id="Group">
                            <path d="M32.7272727,16.3636364 C34.9772727,16.3636364 36.8181818,14.5227273 36.8181818,12.2727273 C36.8181818,10.0227273 34.9772727,8.18181818 32.7272727,8.18181818 C30.4772727,8.18181818 28.6363636,10.0227273 28.6363636,12.2727273 C28.6363636,14.5227273 30.4772727,16.3636364 32.7272727,16.3636364 L32.7272727,16.3636364 Z M32.7272727,10.2272727 C33.8522727,10.2272727 34.7727273,11.1477273 34.7727273,12.2727273 C34.7727273,13.3977273 33.8522727,14.3181818 32.7272727,14.3181818 C31.6022727,14.3181818 30.6818182,13.3977273 30.6818182,12.2727273 C30.6818182,11.1477273 31.6022727,10.2272727 32.7272727,10.2272727 L32.7272727,10.2272727 Z" id="Shape"></path>
                            <path d="M29.7613636,0 C21.3238636,0 14.4204545,6.90340909 14.4204545,15.3409091 C14.4204545,17.2840909 14.7784091,19.125 15.4431818,20.8636364 L1.22727273,35.1306818 C0.460227273,35.8977273 0,36.9715909 0,37.9943182 L0,43.9772727 C0,44.5397727 0.460227273,45 1.02272727,45 L7.00568182,45 C8.13068182,45 9.15340909,44.5397727 9.86931818,43.7727273 L12.5795455,41.0625 C12.7329545,40.9090909 12.7840909,40.7556818 12.8352273,40.6022727 L13.3977273,38.3011364 L15.6988636,37.7386364 C15.9034091,37.6875 16.0568182,37.5852273 16.1590909,37.4829545 L17.5909091,36.0511364 C17.7443182,35.8977273 17.8465909,35.7443182 17.8465909,35.5397727 L18.0511364,34.4147727 L19.1761364,34.2102273 C19.3806818,34.1590909 19.5340909,34.0568182 19.6875,33.9545455 L23.9829545,29.6590909 C25.7215909,30.375 27.6647727,30.7329545 29.6590909,30.7329545 C38.0965909,30.7329545 45,23.8295455 45,15.3920455 C45,6.95454545 38.1988636,0 29.7613636,0 L29.7613636,0 Z M18.5625,32.2159091 L17.0795455,32.5227273 C16.6704545,32.625 16.3636364,32.9318182 16.2613636,33.3409091 L16.0056818,34.7727273 L14.9829545,35.7954545 L12.3238636,36.4602273 C11.9659091,36.5625 11.6590909,36.8181818 11.5568182,37.2272727 L10.8920455,39.8863636 L8.33522727,42.4431818 C7.875,42.9545455 7.3125,43.0568182 6.95454545,43.0568182 L2.04545455,43.0568182 L2.04545455,38.0965909 C2.04545455,37.5852273 2.30113636,37.0738636 2.65909091,36.6647727 L16.3636364,22.8068182 C17.7443182,25.2102273 19.7386364,27.2556818 22.1420455,28.6363636 L18.5625,32.2159091 L18.5625,32.2159091 Z M29.7613636,28.6363636 C24.3920455,28.6363636 19.7897727,25.4659091 17.6931818,20.8636364 C17.6420455,20.7102273 17.5909091,20.6079545 17.5397727,20.4545455 C16.875,18.8693182 16.5170455,17.1306818 16.5170455,15.3409091 C16.5170455,8.02840909 22.5,2.04545455 29.8125,2.04545455 C37.125,2.04545455 43.1079545,8.02840909 43.1079545,15.3409091 C43.0568182,22.6534091 37.0738636,28.6363636 29.7613636,28.6363636 L29.7613636,28.6363636 Z" id="Shape"></path>
                        </g>
                    </g>
                </g>
            </g>
        </g>
    </g>
</svg>