<?xml version="1.0" encoding="UTF-8"?>
<svg width="70px" height="70px" viewBox="0 0 70 70" version="1.1" xmlns="http://www.w3.org/2000/svg" xmlns:xlink="http://www.w3.org/1999/xlink">
    <!-- Generator: Sketch 40.3 (33839) - http://www.bohemiancoding.com/sketch -->
    <title>icon-connection</title>
    <desc>Created with Sketch.</desc>
    <defs></defs>
    <g id="Page-1" stroke="none" stroke-width="1" fill="none" fill-rule="evenodd">
        <g id="Desktop-HD" transform="translate(-284.000000, -2038.000000)">
            <g id="Group-3-Copy-6" transform="translate(176.000000, 2038.000000)">
                <g id="icon-connection" transform="translate(108.000000, 0.000000)">
                    <rect id="Rectangle-5" fill="#E85C4D" x="0" y="0" width="70" height="70"></rect>
                    <g id="networking" transform="translate(9.000000, 14.000000)" fill="#FFFFFF">
                        <g id="Group">
                            <path d="M42.7375,42.0114258 L40.6094727,40.8351562 L40.6094727,39.0131836 C40.6094727,38.9128906 40.5714844,38.8112305 40.4921875,38.7332031 C40.4146484,38.655957 40.3139648,38.6169922 40.2112305,38.6169922 L34.7884766,38.6169922 C34.6867188,38.6169922 34.5839844,38.655957 34.5075195,38.7332031 C34.4302734,38.8114258 34.3913086,38.9129883 34.3913086,39.0131836 L34.3913086,40.8351562 L32.2632812,42.0114258 C32.2422852,42.0226562 32.2243164,42.0394531 32.2105469,42.062207 C32.1977539,42.084668 32.1915039,42.1091797 32.1915039,42.1327148 L32.1915039,42.3921875 C32.1915039,42.4271484 32.2052734,42.4624023 32.231543,42.4894531 C32.2595703,42.5171875 32.2950195,42.530957 32.3305664,42.530957 L42.6701172,42.530957 C42.7058594,42.530957 42.7411133,42.5171875 42.7686523,42.4894531 C42.7956055,42.4626953 42.809375,42.4272461 42.809375,42.3921875 L42.809375,42.1327148 C42.809375,42.1089844 42.8021484,42.084668 42.7893555,42.062207 C42.7764648,42.0394531 42.7592773,42.0226562 42.7375,42.0114258 L42.7375,42.0114258 Z" id="Shape"></path>
                            <path d="M49.7237305,21.5652344 C49.5392578,21.38125 49.2992187,21.2884766 49.0575195,21.2884766 L25.9422852,21.2884766 C25.7004883,21.2884766 25.4605469,21.38125 25.2760742,21.5652344 C25.0925781,21.749707 25.0005859,21.9905273 25.0005859,22.2314453 L25.0005859,37.1942383 C25.0005859,37.4360352 25.0923828,37.6769531 25.2760742,37.8604492 C25.4605469,38.0449219 25.7005859,38.1367188 25.9422852,38.1367188 L49.0575195,38.1367188 C49.2993164,38.1367188 49.5392578,38.0449219 49.7237305,37.8604492 C49.9082031,37.6769531 50,37.4359375 50,37.1942383 L50,22.2314453 C50,21.9907227 49.9082031,21.7499023 49.7237305,21.5652344 L49.7237305,21.5652344 Z M37.499707,37.7376953 C37.26875,37.7376953 37.0824219,37.5509766 37.0824219,37.3208984 C37.0824219,37.0904297 37.2686523,36.9041016 37.499707,36.9041016 C37.7287109,36.9041016 37.9169922,37.090332 37.9169922,37.3208984 C37.9169922,37.5509766 37.7287109,37.7376953 37.499707,37.7376953 L37.499707,37.7376953 Z M48.3695312,36.5069336 L26.6302734,36.5069336 L26.6302734,22.9194336 L48.3695312,22.9194336 L48.3695312,36.5069336 L48.3695312,36.5069336 Z" id="Shape"></path>
                            <path d="M17.7360352,20.7689453 L15.609082,19.5931641 L15.609082,17.7713867 C15.609082,17.6701172 15.5710937,17.5691406 15.4928711,17.490918 C15.415625,17.4136719 15.3138672,17.374707 15.2119141,17.374707 L9.78789062,17.374707 C9.68613281,17.374707 9.58515625,17.4136719 9.50693359,17.490918 C9.42871094,17.5691406 9.39140625,17.6699219 9.39140625,17.7713867 L9.39140625,19.5931641 L7.26269531,20.7689453 C7.24199219,20.7806641 7.22373047,20.7979492 7.2109375,20.8199219 C7.19716797,20.8426758 7.19091797,20.8671875 7.19091797,20.8912109 L7.19091797,21.15 C7.19091797,21.1860352 7.2046875,21.2209961 7.23193359,21.2482422 C7.25917969,21.275 7.29472656,21.2887695 7.33095703,21.2887695 L17.6694336,21.2887695 C17.7049805,21.2887695 17.7404297,21.275293 17.7676758,21.2482422 C17.7949219,21.2209961 17.8086914,21.1860352 17.8086914,21.15 L17.8086914,20.8912109 C17.8086914,20.8671875 17.8024414,20.8426758 17.7896484,20.8199219 C17.7767578,20.7981445 17.7577148,20.780957 17.7360352,20.7689453 L17.7360352,20.7689453 Z" id="Shape"></path>
                            <path d="M24.0577148,0.0471679687 L0.942773438,0.0471679687 C0.700976563,0.0471679687 0.461035156,0.139453125 0.2765625,0.3234375 C0.091796875,0.507421875 0,0.748730469 0,0.989648438 L0,15.9524414 C0,16.1942383 0.091796875,16.4351563 0.276269531,16.6194336 C0.460742188,16.8029297 0.70078125,16.8954102 0.942480469,16.8954102 L24.0577148,16.8954102 C24.2995117,16.8954102 24.5404297,16.803125 24.7239258,16.6194336 C24.9083984,16.4349609 25.0001953,16.1939453 25.0001953,15.9524414 L25.0001953,0.989648438 C25.0004883,0.748632812 24.9086914,0.507421875 24.7239258,0.3234375 C24.5405273,0.139453125 24.2995117,0.0471679687 24.0577148,0.0471679687 L24.0577148,0.0471679687 Z M12.500293,16.4964844 C12.2693359,16.4964844 12.0830078,16.3097656 12.0830078,16.0791992 C12.0830078,15.8492188 12.2692383,15.6624023 12.500293,15.6624023 C12.7292969,15.6624023 12.9165039,15.8491211 12.9165039,16.0791992 C12.9165039,16.309668 12.7292969,16.4964844 12.500293,16.4964844 L12.500293,16.4964844 Z M23.369043,15.2651367 L23.369043,15.2651367 L1.63076172,15.2651367 L1.63076172,1.67792969 L23.369043,1.67792969 L23.369043,15.2651367 L23.369043,15.2651367 Z" id="Shape"></path>
                            <path d="M38.699707,17.5384766 C39.3666992,17.5384766 39.9084961,16.9977539 39.9084961,16.3304688 C39.9084961,15.6634766 39.3666992,15.1224609 38.699707,15.1224609 C38.0314453,15.1224609 37.4916992,15.6634766 37.4916992,16.3304688 C37.4917969,16.9976563 38.031543,17.5384766 38.699707,17.5384766 L38.699707,17.5384766 Z" id="Shape"></path>
                            <path d="M38.699707,8.79794922 C39.3666992,8.79794922 39.9084961,8.25693359 39.9084961,7.58974609 C39.9084961,6.92177734 39.3666992,6.38154297 38.699707,6.38154297 C38.0314453,6.38154297 37.4916992,6.92177734 37.4916992,7.58974609 C37.4917969,8.25693359 38.031543,8.79794922 38.699707,8.79794922 L38.699707,8.79794922 Z" id="Shape"></path>
                            <path d="M38.699707,13.1681641 C39.3666992,13.1681641 39.9084961,12.6271484 39.9084961,11.959668 C39.9084961,11.2928711 39.3666992,10.7516602 38.699707,10.7514648 C38.0314453,10.7514648 37.4916992,11.2929688 37.4916992,11.959668 C37.4917969,12.6271484 38.031543,13.1681641 38.699707,13.1681641 L38.699707,13.1681641 Z" id="Shape"></path>
                            <path d="M29.9580078,8.79794922 C30.6259766,8.79794922 31.1660156,8.25693359 31.1660156,7.58974609 C31.1660156,6.92177734 30.6259766,6.38154297 29.9580078,6.38154297 C29.2897461,6.38154297 28.75,6.92177734 28.75,7.58974609 C28.75,8.25693359 29.2897461,8.79794922 29.9580078,8.79794922 L29.9580078,8.79794922 Z" id="Shape"></path>
                            <path d="M34.3291992,8.79794922 C34.9954102,8.79794922 35.537207,8.25693359 35.537207,7.58974609 C35.537207,6.92177734 34.9954102,6.38154297 34.3291992,6.38154297 C33.6619141,6.38154297 33.1202148,6.92177734 33.1202148,7.58974609 C33.1202148,8.25693359 33.6620117,8.79794922 34.3291992,8.79794922 L34.3291992,8.79794922 Z" id="Shape"></path>
                            <path d="M11.3004883,25.0384766 C10.6332031,25.0384766 10.0924805,25.5801758 10.0924805,26.2474609 C10.0924805,26.9152344 10.6332031,27.4554688 11.3004883,27.4554688 C11.968457,27.4554688 12.5092773,26.9152344 12.5092773,26.2474609 C12.5092773,25.5801758 11.968457,25.0384766 11.3004883,25.0384766 L11.3004883,25.0384766 Z" id="Shape"></path>
                            <path d="M11.3004883,33.7801758 C10.6332031,33.7801758 10.0924805,34.3208984 10.0924805,34.9881836 C10.0924805,35.6561523 10.6332031,36.1961914 11.3004883,36.1961914 C11.968457,36.1961914 12.5092773,35.6561523 12.5092773,34.9881836 C12.5092773,34.3208984 11.968457,33.7801758 11.3004883,33.7801758 L11.3004883,33.7801758 Z" id="Shape"></path>
                            <path d="M11.3004883,29.409668 C10.6332031,29.409668 10.0924805,29.9503906 10.0924805,30.6176758 C10.0924805,31.2849609 10.6332031,31.8261719 11.3004883,31.8261719 C11.968457,31.8261719 12.5092773,31.2849609 12.5092773,30.6176758 C12.5092773,29.9503906 11.968457,29.409668 11.3004883,29.409668 L11.3004883,29.409668 Z" id="Shape"></path>
                            <path d="M20.0419922,33.7801758 C19.374707,33.7801758 18.8339844,34.3208984 18.8339844,34.9881836 C18.8339844,35.6561523 19.374707,36.1961914 20.0419922,36.1961914 C20.7092773,36.1961914 21.25,35.6561523 21.25,34.9881836 C21.25,34.3208984 20.7092773,33.7801758 20.0419922,33.7801758 L20.0419922,33.7801758 Z" id="Shape"></path>
                            <path d="M15.6717773,33.7801758 C15.0035156,33.7801758 14.4635742,34.3208984 14.4637695,34.9881836 C14.4637695,35.6561523 15.0038086,36.1961914 15.6717773,36.1961914 C16.3390625,36.1961914 16.8797852,35.6561523 16.8797852,34.9881836 C16.8797852,34.3208984 16.3389648,33.7801758 15.6717773,33.7801758 L15.6717773,33.7801758 Z" id="Shape"></path>
                        </g>
                    </g>
                </g>
            </g>
        </g>
    </g>
</svg>