<?xml version="1.0" encoding="UTF-8"?>
<svg width="70px" height="70px" viewBox="0 0 70 70" version="1.1" xmlns="http://www.w3.org/2000/svg" xmlns:xlink="http://www.w3.org/1999/xlink">
    <!-- Generator: Sketch 40.3 (33839) - http://www.bohemiancoding.com/sketch -->
    <title>icon-star</title>
    <desc>Created with Sketch.</desc>
    <defs></defs>
    <g id="Page-1" stroke="none" stroke-width="1" fill="none" fill-rule="evenodd">
        <g id="Desktop-HD" transform="translate(-285.000000, -1653.000000)">
            <g id="Group-3-Copy-3" transform="translate(177.000000, 1653.000000)">
                <g id="icon-star" transform="translate(108.000000, 0.000000)">
                    <rect id="Rectangle-5" fill="#E85C4D" x="0" y="0" width="70" height="70"></rect>
                    <g id="favorites" transform="translate(10.482213, 13.500000)" fill="#FFFFFF">
                        <path d="M44.3023084,18.6430563 C45.1721088,17.7952096 45.47918,16.5508819 45.1039021,15.3956826 C44.7285303,14.2404834 43.7486797,13.4144029 42.5466645,13.2398048 L32.0360683,11.7125175 C31.8297593,11.6825891 31.6514085,11.5530244 31.5590901,11.3659484 L26.8586404,1.84186401 C26.3211486,0.752619859 25.232655,0.0759937778 24.0179742,0.0759937778 C22.8032934,0.0759937778 21.7147998,0.752619859 21.177308,1.84186401 L16.4768583,11.3660422 C16.3844461,11.5530244 16.2061891,11.6825891 15.9997863,11.7126114 L5.4893777,13.2398048 C4.28736254,13.4144029 3.30760572,14.2404834 2.93214017,15.3956826 C2.55667462,16.5508819 2.86383959,17.7952096 3.7337338,18.6430563 L11.3392098,26.0565777 C11.4884766,26.2021855 11.5566834,26.411872 11.5214073,26.6174305 L9.7259839,37.0854327 C9.52070688,38.282663 10.0035019,39.4697609 10.9861671,40.1837271 C11.9688324,40.897881 13.2474042,40.9901055 14.3223878,40.4250308 L23.7231934,35.4827145 C23.9078301,35.3856113 24.1282121,35.3856113 24.3129426,35.4827145 L33.7138421,40.4250308 C34.1814383,40.6708379 34.6874068,40.7923341 35.1909359,40.7922403 C35.8448577,40.7922403 36.4946514,40.5873385 37.0497813,40.1836333 C38.0324465,39.4695733 38.5153353,38.2823816 38.3099645,37.0853388 L36.5145411,26.6173367 C36.4793588,26.4117782 36.5474718,26.2020917 36.6967386,26.0564838 L44.3023084,18.6430563 L44.3023084,18.6430563 Z M34.0169728,27.0459041 L35.8123962,37.5140939 C35.8724406,37.8644158 35.6561867,38.0641575 35.560397,38.1336777 C35.4645135,38.2031041 35.2076358,38.3473046 34.8931529,38.1818071 L25.4922535,33.2394908 C25.0307555,32.9969674 24.5245056,32.875565 24.0181618,32.875565 C23.5118181,32.875565 23.0054744,32.9969674 22.5440702,33.2393969 L13.1432646,38.1816194 C12.8285941,38.3470232 12.5718102,38.2030103 12.4760205,38.1334901 C12.3802308,38.0639698 12.1638831,37.8642282 12.2240213,37.5139062 L14.0194447,27.0459041 C14.1957315,26.0181117 13.8552606,24.9699605 13.1083638,24.2420151 L5.50288771,16.8284937 C5.24835546,16.5802474 5.30596062,16.2915648 5.34264404,16.1789815 C5.37913981,16.0663043 5.50232479,15.7988249 5.85405402,15.7477871 L16.3643688,14.2204999 C17.3962892,14.0705763 18.2880434,13.4228466 18.7496352,12.4875603 L23.4500849,2.96338206 C23.6074202,2.64467729 23.8997617,2.61024554 24.0182557,2.61024554 C24.136562,2.61024554 24.4289035,2.64458347 24.5863326,2.96338206 L24.5863326,2.96347588 L29.2867823,12.4876541 C29.7482803,13.4229405 30.6399406,14.0706701 31.6718611,14.2205937 L42.1823635,15.747881 C42.5340927,15.7989188 42.6571839,16.0663981 42.6937735,16.1790753 C42.7303631,16.2917525 42.788062,16.5805288 42.533436,16.8285875 L34.9279599,24.2421089 C34.1811569,24.9699605 33.840686,26.0181117 34.0169728,27.0459041 L34.0169728,27.0459041 Z" id="Shape"></path>
                        <path d="M38.8209054,1.84120727 C38.254611,1.42990268 37.4623055,1.55543314 37.0510009,2.12153987 L35.705911,3.97278583 C35.2946064,4.53889256 35.4200431,5.3313857 35.9862436,5.74269029 C36.2113166,5.90603001 36.4718533,5.98474455 36.7300445,5.98474455 C37.1219284,5.98474455 37.5082771,5.80357914 37.7561481,5.46245151 L39.101238,3.61120556 C39.5125426,3.045005 39.3871059,2.25251187 38.8209054,1.84120727 L38.8209054,1.84120727 Z" id="Shape"></path>
                        <path d="M12.3241267,3.96528027 L10.9790369,2.11403431 C10.5678261,1.54811522 9.77542677,1.42258476 9.2091324,1.83370171 C8.64302566,2.24500631 8.5174952,3.03749944 8.92879979,3.60360618 L10.2738897,5.45485213 C10.5218545,5.79626122 10.9082032,5.97733281 11.3001809,5.97733281 C11.558466,5.97733281 11.8190965,5.89861827 12.0438879,5.73518474 C12.6099947,5.32397396 12.7355251,4.53148082 12.3241267,3.96528027 L12.3241267,3.96528027 Z" id="Shape"></path>
                        <path d="M4.64894281,28.5050784 C4.43268891,27.8396168 3.7178783,27.4753158 3.0522291,27.6915697 L0.875898654,28.3987809 C0.210249452,28.6150348 -0.153863945,29.3300331 0.0623899534,29.9954947 C0.236331267,30.5311101 0.733105407,30.8714871 1.2672197,30.8714871 C1.39697204,30.8714871 1.52897605,30.8513159 1.65910366,30.8090034 L3.83543411,30.1017921 C4.50098949,29.8855382 4.86519671,29.1707276 4.64894281,28.5050784 L4.64894281,28.5050784 Z" id="Shape"></path>
                        <path d="M24.0182557,42.573966 C23.3184562,42.573966 22.7511298,43.1412924 22.7511298,43.8410919 L22.7511298,46.1295366 C22.7511298,46.8293361 23.3184562,47.3966625 24.0182557,47.3966625 C24.7180552,47.3966625 25.2853815,46.8293361 25.2853815,46.1295366 L25.2853815,43.8410919 C25.2853815,43.1411986 24.718149,42.573966 24.0182557,42.573966 L24.0182557,42.573966 Z" id="Shape"></path>
                        <path d="M47.1596745,28.4005635 L44.983344,27.6933523 C44.3179763,27.477286 43.6028842,27.8413056 43.3866303,28.5069548 C43.1703764,29.172604 43.5344898,29.8874146 44.200139,30.1036685 L46.3764695,30.8108797 C46.5065971,30.8530985 46.6385073,30.8731759 46.7682596,30.8731759 C47.3024677,30.8731759 47.7992419,30.532705 47.9731832,29.9971834 C48.1894371,29.331628 47.8252299,28.6168174 47.1596745,28.4005635 L47.1596745,28.4005635 Z" id="Shape"></path>
                    </g>
                </g>
            </g>
        </g>
    </g>
</svg>