<?xml version="1.0" encoding="UTF-8"?>
<svg width="70px" height="70px" viewBox="0 0 70 70" version="1.1" xmlns="http://www.w3.org/2000/svg" xmlns:xlink="http://www.w3.org/1999/xlink">
    <!-- Generator: Sketch 40.3 (33839) - http://www.bohemiancoding.com/sketch -->
    <title>icon-modernization</title>
    <desc>Created with Sketch.</desc>
    <defs></defs>
    <g id="Page-1" stroke="none" stroke-width="1" fill="none" fill-rule="evenodd">
        <g id="Desktop-HD" transform="translate(-685.000000, -1484.000000)">
            <g id="Group-3-Copy" transform="translate(577.000000, 1484.000000)">
                <g id="icon-modernization" transform="translate(108.000000, 0.000000)">
                    <rect id="Rectangle-5" fill="#E85C4D" x="0" y="0" width="70" height="70"></rect>
                    <g id="upload" transform="translate(12.000000, 13.000000)" fill="#FFFFFF">
                        <g id="Group">
                            <path d="M0,31.6515306 L0,39.3841837 C0,42.0382653 2.15816327,44.2056122 4.82142857,44.2056122 L40.1234694,44.2056122 C42.777551,44.2056122 44.944898,42.047449 44.944898,39.3841837 L44.944898,31.6515306 C44.944898,28.997449 42.7867347,26.830102 40.1234694,26.830102 L30.3887755,26.830102 C29.3969388,26.830102 28.5704082,27.5831633 28.4693878,28.575 C28.1571429,31.6607143 25.5765306,33.9841837 22.472449,33.9841837 C19.3683673,33.9841837 16.7877551,31.6607143 16.4755102,28.575 C16.3744898,27.5831633 15.5479592,26.830102 14.5561224,26.830102 L4.82142857,26.830102 C2.16734694,26.830102 0,28.9882653 0,31.6515306 L0,31.6515306 Z M22.472449,36.2341837 C26.6418367,36.2341837 30.122449,33.1760204 30.6734694,29.080102 L40.1234694,29.080102 C41.5377551,29.080102 42.694898,30.2280612 42.694898,31.6515306 L42.694898,39.3841837 C42.694898,40.7984694 41.5469388,41.9556122 40.1234694,41.9556122 L4.82142857,41.9556122 C3.40714286,41.9556122 2.25,40.8076531 2.25,39.3841837 L2.25,31.6515306 C2.25,30.2372449 3.39795918,29.080102 4.82142857,29.080102 L14.2714286,29.080102 C14.822449,33.1760204 18.3030612,36.2341837 22.472449,36.2341837 L22.472449,36.2341837 Z" id="Shape"></path>
                            <path d="M22.472449,24.2403061 C23.0969388,24.2403061 23.6020408,23.7352041 23.6020408,23.1107143 L23.6020408,3.84336735 L29.0479592,9.28928571 C29.2683673,9.50969388 29.5530612,9.61989796 29.8469388,9.61989796 C30.1408163,9.61989796 30.4255102,9.50969388 30.6459184,9.28928571 C31.0867347,8.84846939 31.0867347,8.14132653 30.6459184,7.7005102 L23.2714286,0.335204082 C22.8306122,-0.105612245 22.1234694,-0.105612245 21.6826531,0.335204082 L14.3173469,7.7005102 C13.8765306,8.14132653 13.8765306,8.84846939 14.3173469,9.28928571 C14.7581633,9.73010204 15.4653061,9.73010204 15.9061224,9.28928571 L21.3520408,3.84336735 L21.3520408,23.1107143 C21.3520408,23.7352041 21.8479592,24.2403061 22.472449,24.2403061 L22.472449,24.2403061 Z" id="Shape"></path>
                        </g>
                    </g>
                </g>
            </g>
        </g>
    </g>
</svg>