<?xml version="1.0" encoding="UTF-8"?>
<svg width="70px" height="70px" viewBox="0 0 70 70" version="1.1" xmlns="http://www.w3.org/2000/svg" xmlns:xlink="http://www.w3.org/1999/xlink">
    <!-- Generator: Sketch 40.3 (33839) - http://www.bohemiancoding.com/sketch -->
    <title>icon-pig</title>
    <desc>Created with Sketch.</desc>
    <defs></defs>
    <g id="Page-1" stroke="none" stroke-width="1" fill="none" fill-rule="evenodd">
        <g id="Desktop-HD" transform="translate(-285.000000, -1484.000000)">
            <g id="Group-3" transform="translate(177.000000, 1484.000000)">
                <g id="icon-pig" transform="translate(108.000000, 0.000000)">
                    <rect id="Rectangle-5" fill="#E85C4D" x="0" y="0" width="70" height="70"></rect>
                    <g id="piggy-bank" transform="translate(13.000000, 14.000000)" fill="#FFFFFF">
                        <path d="M41.6866768,15.0344033 L41.0314291,15.0344033 C39.9424258,12.2617775 38.1151152,9.74536796 35.678701,7.70478857 C35.3372339,6.47861081 35.5956415,5.15177668 36.4723814,3.77918964 C36.96151,3.00139032 36.9891965,2.06803114 36.5462121,1.27193065 C36.1032278,0.484980753 35.272632,0 34.3774344,0 C34.2759171,0 34.1651711,0.00915058025 34.0636538,0.0183011605 C30.6951267,0.430077272 28.6463239,1.92162185 27.4188879,3.33996179 C25.9422733,2.88243278 24.0688185,2.74517407 23.7181225,2.71772233 C22.8506114,2.62621653 21.9646427,2.57131305 21.0879027,2.57131305 C15.485996,2.57131305 10.2163275,4.47463374 6.23869682,7.91525191 C2.21492195,11.401623 0,16.0592683 0,21.0188828 C0,22.2999641 0.147661463,23.5810453 0.452213231,24.8346748 C0.461442073,24.8621265 0.461442073,24.8895783 0.470670914,24.9078794 L0.479899755,24.9536323 C0.793680365,26.2164124 1.26435128,27.4517407 1.86422597,28.6321656 C2.87016969,30.7734014 4.06991908,32.5669151 5.41732993,33.9486527 C7.2815559,35.8519734 7.60456536,38.2677266 7.65070956,39.2376881 L7.65070956,39.7135183 L7.65070956,39.7775723 C7.65070956,39.8782287 7.6599384,39.9697345 7.67839609,40.0612403 C7.85374407,41.1959123 8.84123011,42.0652174 10.0225218,42.0652174 L16.8980087,42.0652174 C18.2085042,42.0652174 19.2698209,41.0129007 19.2698209,39.7135183 L19.2698209,39.4023985 C20.2480781,39.4756032 21.2355642,39.4847538 22.2230502,39.4390009 L22.2230502,39.7135183 C22.2230502,41.0129007 23.284367,42.0652174 24.5948625,42.0652174 L31.4703493,42.0652174 C32.7808448,42.0652174 33.8421616,41.0129007 33.8421616,39.7135183 L33.8421616,38.0481127 C33.8513904,37.6637883 33.9990519,35.8428228 35.7433029,34.268923 C35.8263625,34.1957184 35.9186509,34.1225137 36.0017105,34.0493091 C36.0109393,34.0401585 36.0109393,34.0401585 36.0201682,34.0310079 C36.0478547,34.0127068 36.0663124,33.9944056 36.0847701,33.9669539 C38.3827516,31.9263745 40.1177738,29.4374167 41.1237175,26.7196943 L41.6682191,26.7196943 C43.5047586,26.7196943 44.9998309,25.2373003 44.9998309,23.4163348 L44.9998309,18.3194617 C45.0182886,16.5076468 43.5232163,15.0344033 41.6866768,15.0344033 L41.6866768,15.0344033 Z M34.3774344,2.46150609 C34.3682056,2.46150609 34.3682056,2.46150609 34.3774344,2.46150609 L34.3682056,2.45235551 C34.3682056,2.45235551 34.3682056,2.45235551 34.3682056,2.46150609 L34.3682056,2.46150609 L34.2113153,1.23532833 L34.3774344,2.46150609 L34.3774344,2.46150609 Z M42.5265014,23.4254854 C42.5265014,23.8830144 42.1481189,24.2581882 41.6866768,24.2581882 L40.2469776,24.2581882 C39.7024759,24.2581882 39.2133473,24.6150609 39.056457,25.1274934 C38.244319,27.7628605 36.6292717,30.1969148 34.4051209,32.1642896 C34.3958921,32.1734401 34.3958921,32.1734401 34.3866632,32.1825907 L34.3774344,32.1917413 C34.2943748,32.2649459 34.2113153,32.3381506 34.1282557,32.4113552 C34.1190268,32.4205058 34.109798,32.4296564 34.1005692,32.438807 C31.6364685,34.6532474 31.3872898,37.2611628 31.3688321,38.0115103 L31.3688321,38.0389621 L31.3688321,39.6037113 L24.7240662,39.6037113 L24.7240662,38.1121667 C24.7240662,37.7644447 24.5764048,37.4258732 24.3087684,37.1971087 C24.0503608,36.9591936 23.690436,36.8493867 23.3489689,36.885989 C22.5922039,36.9683442 21.8354389,37.0049465 21.0879027,37.0049465 C20.1188744,37.0049465 19.149846,36.9408925 18.1992753,36.8127843 C17.8393505,36.7670314 17.4794257,36.8768384 17.2117893,37.1056029 C16.9441529,37.343518 16.7872626,37.6820895 16.7872626,38.0389621 L16.7872626,39.6037113 L10.1517256,39.6037113 L10.1517256,39.2102364 L10.1517256,39.1553329 C10.0963525,37.9200045 9.69951236,34.7630544 7.21695401,32.2283436 C6.05411999,31.0387682 5.01126091,29.474019 4.12529213,27.5706983 C4.11606329,27.5523971 4.10683445,27.5432465 4.10683445,27.5249454 C3.58079048,26.509231 3.17472146,25.4477637 2.90708506,24.3588446 C2.90708506,24.349694 2.89785622,24.3405435 2.89785622,24.3313929 L2.89785622,24.3130917 C2.63944865,23.2333232 2.50101603,22.126103 2.50101603,21.0280334 C2.50101603,12.2160246 10.8438887,5.0511203 21.0971316,5.0511203 C21.8908119,5.0511203 22.6937211,5.0968732 23.4781727,5.17922842 C23.4966303,5.17922842 23.515088,5.17922842 23.5335457,5.188379 C24.5671759,5.25243306 26.486775,5.51779989 27.2527688,5.929576 C27.8157281,6.23154515 28.5171201,6.05768412 28.8770449,5.53610105 C29.6799541,4.3556762 31.2857725,2.86413162 34.3682056,2.48895783 C33.122312,4.46548316 32.7531583,6.51521314 33.29766,8.42768441 C33.3068888,8.78455704 33.4822368,9.12312851 33.759102,9.35189301 C36.2508892,11.3467195 38.0597421,13.8814302 38.9826263,16.6723572 C39.1487454,17.1756391 39.6286452,17.5233612 40.163918,17.5233612 L40.1823757,17.5233612 L41.6959057,17.5233612 C42.1573477,17.5233612 42.5357302,17.898535 42.5357302,18.356064 L42.5357302,23.4254854 L42.5265014,23.4254854 L42.5265014,23.4254854 Z" id="Shape"></path>
                    </g>
                </g>
            </g>
        </g>
    </g>
</svg>
