<?xml version="1.0" encoding="UTF-8"?>
<svg width="70px" height="70px" viewBox="0 0 70 70" version="1.1" xmlns="http://www.w3.org/2000/svg" xmlns:xlink="http://www.w3.org/1999/xlink">
    <!-- Generator: Sketch 40.3 (33839) - http://www.bohemiancoding.com/sketch -->
    <title>icon-time</title>
    <desc>Created with Sketch.</desc>
    <defs></defs>
    <g id="Page-1" stroke="none" stroke-width="1" fill="none" fill-rule="evenodd">
        <g id="Desktop-HD" transform="translate(-685.000000, -2038.000000)">
            <g id="Group-3-Copy-8" transform="translate(577.000000, 2038.000000)">
                <g id="icon-time" transform="translate(108.000000, 0.000000)">
                    <rect id="Rectangle-5" fill="#E85C4D" x="0" y="0" width="70" height="70"></rect>
                    <g id="hourglass-(1)" transform="translate(19.000000, 14.000000)" fill="#FFFFFF">
                        <g id="Group">
                            <path d="M29.9130435,37.8 L26.4347826,37.8 L26.4347826,33.6 C26.4347826,28.2863 23.549913,23.492 18.9815652,21 C23.549913,18.508 26.4347826,13.7137 26.4347826,8.4 L26.4347826,4.2 L29.9130435,4.2 C31.0636522,4.2 32,3.2578 32,2.1 C32,0.9422 31.0636522,0 29.9130435,0 L2.08695652,0 C0.936347826,0 0,0.9422 0,2.1 C0,3.2578 0.936347826,4.2 2.08695652,4.2 L5.56521739,4.2 L5.56521739,8.4 C5.56521739,13.7137 8.45008696,18.508 13.0184348,21 C8.45008696,23.492 5.56521739,28.2863 5.56521739,33.6 L5.56521739,37.8 L2.08695652,37.8 C0.936347826,37.8 0,38.7422 0,39.9 C0,41.0578 0.936347826,42 2.08695652,42 L29.9130435,42 C31.0636522,42 32,41.0578 32,39.9 C32,38.7422 31.0636522,37.8 29.9130435,37.8 L29.9130435,37.8 Z M2.08695652,2.8 C1.70365217,2.8 1.39130435,2.4864 1.39130435,2.1 C1.39130435,1.7136 1.70365217,1.4 2.08695652,1.4 L29.9130435,1.4 C30.2963478,1.4 30.6086957,1.7136 30.6086957,2.1 C30.6086957,2.4864 30.2963478,2.8 29.9130435,2.8 L26.4347826,2.8 L5.56521739,2.8 L2.08695652,2.8 L2.08695652,2.8 Z M6.95652174,8.4 L6.95652174,4.2 L25.0434783,4.2 L25.0434783,8.4 C25.0434783,13.5989 21.9888696,18.2546 17.250087,20.3 L14.7492174,20.3 C10.0111304,18.2546 6.95652174,13.5989 6.95652174,8.4 L6.95652174,8.4 Z M6.95652174,33.6 C6.95652174,28.4011 10.0111304,23.7454 14.749913,21.7 L17.2507826,21.7 C21.9888696,23.7454 25.0434783,28.4011 25.0434783,33.6 L25.0434783,37.8 C25.0434783,37.4136 24.7318261,37.1 24.3478261,37.1 C23.9638261,37.1 23.6521739,37.4136 23.6521739,37.8 L22.2608696,37.8 C22.2608696,37.4136 21.9492174,37.1 21.5652174,37.1 C21.1812174,37.1 20.8695652,37.4136 20.8695652,37.8 L19.4782609,37.8 C19.4782609,37.4136 19.1666087,37.1 18.7826087,37.1 C18.3986087,37.1 18.0869565,37.4136 18.0869565,37.8 L16.6956522,37.8 C16.6956522,37.4136 16.384,37.1 16,37.1 C15.616,37.1 15.3043478,37.4136 15.3043478,37.8 L13.9130435,37.8 C13.9130435,37.4136 13.6013913,37.1 13.2173913,37.1 C12.8333913,37.1 12.5217391,37.4136 12.5217391,37.8 L11.1304348,37.8 C11.1304348,37.4136 10.8187826,37.1 10.4347826,37.1 C10.0507826,37.1 9.73913043,37.4136 9.73913043,37.8 L8.34782609,37.8 C8.34782609,37.4136 8.03617391,37.1 7.65217391,37.1 C7.26817391,37.1 6.95652174,37.4136 6.95652174,37.8 L6.95652174,33.6 L6.95652174,33.6 Z M29.9130435,40.6 L2.08695652,40.6 C1.70365217,40.6 1.39130435,40.2864 1.39130435,39.9 C1.39130435,39.5136 1.70365217,39.2 2.08695652,39.2 L5.56521739,39.2 L26.4347826,39.2 L29.9130435,39.2 C30.2963478,39.2 30.6086957,39.5136 30.6086957,39.9 C30.6086957,40.2864 30.2963478,40.6 29.9130435,40.6 L29.9130435,40.6 Z" id="Shape"></path>
                            <ellipse id="Oval" cx="8.5" cy="35.5" rx="0.5" ry="0.5"></ellipse>
                            <ellipse id="Oval" cx="11.5" cy="35.5" rx="0.5" ry="0.5"></ellipse>
                            <circle id="Oval" cx="14.5" cy="35.5" r="0.5"></circle>
                            <circle id="Oval" cx="17.5" cy="35.5" r="0.5"></circle>
                            <circle id="Oval" cx="19.5" cy="35.5" r="0.5"></circle>
                            <circle id="Oval" cx="22.5" cy="35.5" r="0.5"></circle>
                            <ellipse id="Oval" cx="10.5" cy="34.5" rx="0.5" ry="0.5"></ellipse>
                            <circle id="Oval" cx="13.5" cy="34.5" r="0.5"></circle>
                            <circle id="Oval" cx="15.5" cy="22.5" r="0.5"></circle>
                            <ellipse id="Oval" cx="11.5" cy="15.5" rx="0.5" ry="0.5"></ellipse>
                            <circle id="Oval" cx="14.5" cy="15.5" r="0.5"></circle>
                            <circle id="Oval" cx="17.5" cy="15.5" r="0.5"></circle>
                            <circle id="Oval" cx="19.5" cy="15.5" r="0.5"></circle>
                            <circle id="Oval" cx="18.5" cy="13.5" r="0.5"></circle>
                            <circle id="Oval" cx="19.5" cy="12.5" r="0.5"></circle>
                            <circle id="Oval" cx="13.5" cy="13.5" r="0.5"></circle>
                            <circle id="Oval" cx="15.5" cy="13.5" r="0.5"></circle>
                            <ellipse id="Oval" cx="11.5" cy="12.5" rx="0.5" ry="0.5"></ellipse>
                            <circle id="Oval" cx="13.5" cy="16.5" r="0.5"></circle>
                            <circle id="Oval" cx="14.5" cy="17.5" r="0.5"></circle>
                            <circle id="Oval" cx="17.5" cy="17.5" r="0.5"></circle>
                            <circle id="Oval" cx="15.5" cy="16.5" r="0.5"></circle>
                            <circle id="Oval" cx="18.5" cy="16.5" r="0.5"></circle>
                            <circle id="Oval" cx="15.5" cy="24.5" r="0.5"></circle>
                            <circle id="Oval" cx="15.5" cy="26.5" r="0.5"></circle>
                            <circle id="Oval" cx="15.5" cy="29.5" r="0.5"></circle>
                            <circle id="Oval" cx="15.5" cy="31.5" r="0.5"></circle>
                            <circle id="Oval" cx="15.5" cy="33.5" r="0.5"></circle>
                            <circle id="Oval" cx="18.5" cy="34.5" r="0.5"></circle>
                            <circle id="Oval" cx="21.5" cy="34.5" r="0.5"></circle>
                        </g>
                    </g>
                </g>
            </g>
        </g>
    </g>
</svg>