<?xml version="1.0" encoding="UTF-8"?>
<svg width="20px" height="20px" viewBox="0 0 20 20" version="1.1" xmlns="http://www.w3.org/2000/svg" xmlns:xlink="http://www.w3.org/1999/xlink">
    <!-- Generator: Sketch 40.3 (33839) - http://www.bohemiancoding.com/sketch -->
    <title>icon-phone</title>
    <desc>Created with Sketch.</desc>
    <defs></defs>
    <g id="Page-1" stroke="none" stroke-width="1" fill="none" fill-rule="evenodd">
        <g id="Desktop-HD" transform="translate(-192.000000, -5073.000000)" fill="#000000">
            <g id="icon-phone" transform="translate(192.000000, 5073.000000)">
                <g id="Group">
                    <path d="M15.93,19.822 C15.1053333,19.822 14.1093333,19.6153333 13.0146667,19.2026667 C10.6126667,18.2966667 8.00066667,16.5073333 5.658,14.1646667 C3.31533333,11.822 1.526,9.20933333 0.62,6.80666667 C-0.204666667,4.62333333 -0.206666667,2.83133333 0.613333333,2.01133333 C0.732,1.89266667 0.852666667,1.766 0.976666667,1.636 C1.72533333,0.849333333 2.59133333,-0.0446666667 3.692,0.004 C4.46533333,0.036 5.214,0.516 5.982,1.46933333 C8.246,4.286 7.22533333,5.29 6.044,6.454 L5.83466667,6.66066667 C5.64133333,6.854 5.27533333,7.74866667 8.67466667,11.1473333 C9.78533333,12.2573333 10.7306667,13.0693333 11.486,13.5606667 C11.9626667,13.87 12.8133333,14.3366667 13.162,13.988 L13.372,13.776 C14.5346667,12.596 15.5386667,11.5786667 18.3546667,13.842 C19.3086667,14.6086667 19.788,15.3573333 19.82,16.1313333 C19.866,17.2526667 18.9726667,18.1006667 18.1846667,18.8486667 C18.0553333,18.972 17.9286667,19.0913333 17.8113333,19.2086667 C17.402,19.6173333 16.7513333,19.822 15.93,19.822 L15.93,19.822 Z M3.61266667,0.668 C2.81666667,0.668 2.09666667,1.42533333 1.46,2.09466667 C1.33133333,2.22933333 1.20666667,2.36066667 1.08466667,2.48266667 C0.474,3.09266667 0.536666667,4.698 1.24333333,6.572 C2.11666667,8.88733333 3.852,11.4166667 6.12933333,13.694 C8.40666667,15.9713333 10.9353333,17.706 13.25,18.5793333 C15.124,19.2866667 16.7293333,19.348 17.34,18.7366667 C17.462,18.6153333 17.592,18.4913333 17.7253333,18.3646667 C18.4106667,17.7133333 19.1873333,16.976 19.154,16.1573333 C19.1306667,15.5953333 18.7213333,14.9906667 17.9366667,14.3606667 C15.59,12.4753333 14.9346667,13.142 13.8466667,14.2433333 L13.6333333,14.4586667 C13.1153333,14.9793333 12.2706667,14.8653333 11.1226667,14.1186667 C10.3293333,13.6026667 9.34666667,12.7606667 8.20333333,11.618 L8.20333333,11.618 C5.38266667,8.79733333 4.48,7.072 5.36333333,6.188 L5.576,5.97733333 C6.68133333,4.88933333 7.348,4.23266667 5.462,1.886 C4.83133333,1.10266667 4.22666667,0.693333333 3.66466667,0.669333333 C3.64733333,0.668666667 3.62933333,0.668 3.61266667,0.668 L3.61266667,0.668 Z" id="Shape"></path>
                    <g transform="translate(10.000000, 0.000000)" id="Shape">
                        <path d="M6.04666667,8.19333333 C6.00466667,8.19333333 5.96266667,8.18533333 5.92133333,8.16866667 C5.75066667,8.09933333 5.668,7.90533333 5.738,7.73533333 C6.162,6.69 5.91933333,5.49866667 5.122,4.70066667 C4.30266667,3.88133333 3.04333333,3.654 1.98666667,4.12866667 C1.82066667,4.204 1.62133333,4.13066667 1.546,3.96266667 C1.47,3.79466667 1.544,3.59733333 1.712,3.522 C3.01933333,2.93 4.57866667,3.21466667 5.59333333,4.23 C6.58066667,5.21733333 6.88,6.69133333 6.35533333,7.986 C6.30333333,8.114 6.178,8.19333333 6.04666667,8.19333333 L6.04666667,8.19333333 Z"></path>
                        <path d="M9.02266667,9.40133333 C8.98066667,9.40133333 8.93866667,9.39333333 8.89733333,9.37666667 C8.726,9.30733333 8.644,9.11333333 8.714,8.94333333 C9.624,6.69866667 9.106,4.142 7.39333333,2.42933333 C5.63466667,0.670666667 2.93,0.177333333 0.663333333,1.202 C0.495333333,1.27533333 0.298,1.20333333 0.222,1.03533333 C0.146666667,0.866666667 0.220666667,0.669333333 0.388666667,0.593333333 C2.90666667,-0.544 5.91066667,0.00333333333 7.86466667,1.95733333 C9.76733333,3.86 10.3433333,6.7 9.33133333,9.19333333 C9.27933333,9.32266667 9.154,9.40133333 9.02266667,9.40133333 L9.02266667,9.40133333 Z"></path>
                    </g>
                </g>
            </g>
        </g>
    </g>
</svg>