<?xml version="1.0" encoding="UTF-8"?>
<svg width="70px" height="70px" viewBox="0 0 70 70" version="1.1" xmlns="http://www.w3.org/2000/svg" xmlns:xlink="http://www.w3.org/1999/xlink">
    <!-- Generator: Sketch 40.3 (33839) - http://www.bohemiancoding.com/sketch -->
    <title>icon-gear</title>
    <desc>Created with Sketch.</desc>
    <defs></defs>
    <g id="Page-1" stroke="none" stroke-width="1" fill="none" fill-rule="evenodd">
        <g id="Desktop-HD" transform="translate(-685.000000, -1653.000000)">
            <g id="Group-3-Copy-4" transform="translate(577.000000, 1653.000000)">
                <g id="icon-gear" transform="translate(108.000000, 0.000000)">
                    <rect id="Rectangle-5" fill="#E85C4D" x="0" y="0" width="70" height="70"></rect>
                    <g id="settings-(1)" transform="translate(10.000000, 11.000000)" fill="#FFFFFF">
                        <g id="Group">
                            <path d="M25,12.1633673 C17.9220408,12.1633673 12.1633673,17.9219388 12.1633673,25 C12.1633673,32.0780612 17.9220408,37.8360204 25,37.8360204 C32.0779592,37.8360204 37.8366327,32.0779592 37.8366327,25 C37.8366327,17.9220408 32.0779592,12.1633673 25,12.1633673 L25,12.1633673 Z M25,35.7083673 C19.094898,35.7083673 14.2910204,30.9044898 14.2910204,25 C14.2910204,19.094898 19.094898,14.2910204 25,14.2910204 C30.905102,14.2910204 35.7089796,19.0947959 35.7089796,25 C35.7089796,30.9045918 30.905102,35.7083673 25,35.7083673 L25,35.7083673 Z" id="Shape"></path>
                            <path d="M27.4456122,17.4272449 L26.1095918,19.0842857 C26.5314286,19.4233673 26.7723469,19.9263265 26.7723469,20.4639796 C26.7723469,21.4410204 25.9776531,22.2363265 25,22.2363265 C24.022449,22.2363265 23.2276531,21.4410204 23.2276531,20.4639796 C23.2276531,19.9263265 23.4686735,19.4234694 23.8905102,19.0842857 L22.5544898,17.4272449 C21.629898,18.1726531 21.1,19.2795918 21.1,20.4639796 C21.1,22.2457143 22.3013265,23.7510204 23.9361224,24.2153061 L23.9361224,32.5722449 L26.0637755,32.5722449 L26.0637755,24.2153061 C27.6986735,23.7510204 28.899898,22.2457143 28.899898,20.4639796 C28.9,19.2795918 28.3702041,18.1726531 27.4456122,17.4272449 L27.4456122,17.4272449 Z" id="Shape"></path>
                            <path d="M50,30.044898 L50,19.9545918 L44.4970408,19.9545918 C44.0283673,18.1433673 43.307449,16.4114286 42.347551,14.7876531 L46.2454082,10.8896939 L39.1103061,3.75510204 L35.2133673,7.65244898 C33.5864286,6.69153061 31.8545918,5.97102041 30.0459184,5.50346939 L30.0459184,0 L19.955102,0 L19.955102,5.50346939 C18.1443878,5.97153061 16.4134694,6.69142857 14.7876531,7.65244898 L10.8897959,3.75459184 L3.75561224,10.8891837 L7.65357143,14.7871429 C6.69255102,16.412449 5.97153061,18.1443878 5.50408163,19.9545918 L0,19.9545918 L0,30.044898 L5.50418367,30.044898 C5.97163265,31.855102 6.69255102,33.5870408 7.65367347,35.2123469 L3.75571429,39.1103061 L10.8897959,46.244898 L14.7876531,42.3469388 C16.4134694,43.3079592 18.1443878,44.0278571 19.955102,44.4960204 L19.955102,50 L30.0460204,50 L30.0460204,44.4960204 C31.8546939,44.0284694 33.5865306,43.3079592 35.2134694,42.3469388 L39.1104082,46.244898 L46.2455102,39.1103061 L42.3476531,35.2123469 C43.307551,33.5884694 44.0284694,31.8567347 44.4971429,30.044898 L50,30.044898 L50,30.044898 Z M42.6134694,28.7597959 C42.157449,30.9019388 41.314898,32.9304082 40.1065306,34.7884694 L39.6369388,35.5110204 L43.2367347,39.1103061 L39.1103061,43.2362245 L35.5126531,39.6370408 L34.7895918,40.1061224 C32.9278571,41.3154082 30.8988776,42.1584694 28.7609184,42.6128571 L27.9183673,42.7915306 L27.9183673,47.8723469 L22.0828571,47.8723469 L22.0828571,42.7915306 L21.2403061,42.6128571 C19.1002041,42.1583673 17.0723469,41.3147959 15.2117347,40.1065306 L14.4886735,39.6369388 L10.889898,43.2361224 L6.76438776,39.1102041 L10.3641837,35.5109184 L9.89459184,34.7883673 C8.68530612,32.9281633 7.84173469,30.8997959 7.3877551,28.7602041 L7.20795918,27.9171429 L2.12765306,27.9171429 L2.12765306,22.0821429 L7.20785714,22.0821429 L7.38765306,21.2390816 C7.84153061,19.0994898 8.68520408,17.0711224 9.8944898,15.2109184 L10.3640816,14.4883673 L6.76428571,10.8891837 L10.8897959,6.76326531 L14.4885714,10.362551 L15.2116327,9.89295918 C17.0722449,8.68479592 19.100102,7.84112245 21.2402041,7.38653061 L22.0827551,7.20795918 L22.0827551,2.12765306 L27.9183673,2.12765306 L27.9183673,7.20785714 L28.7609184,7.38642857 C30.8989796,7.84102041 32.9279592,8.68408163 34.7895918,9.89336735 L35.5126531,10.362449 L39.1103061,6.76367347 L43.2367347,10.8895918 L39.6369388,14.4883673 L40.1065306,15.2109184 C41.3147959,17.0694898 42.1582653,19.0979592 42.6134694,21.2396939 L42.7931633,22.0822449 L47.8723469,22.0822449 L47.8723469,27.9172449 L42.7931633,27.9172449 L42.6134694,28.7597959 L42.6134694,28.7597959 Z" id="Shape"></path>
                        </g>
                    </g>
                </g>
            </g>
        </g>
    </g>
</svg>