<?xml version="1.0" encoding="UTF-8"?>
<svg width="70px" height="70px" viewBox="0 0 70 70" version="1.1" xmlns="http://www.w3.org/2000/svg" xmlns:xlink="http://www.w3.org/1999/xlink">
    <!-- Generator: Sketch 40.3 (33839) - http://www.bohemiancoding.com/sketch -->
    <title>icon-filials</title>
    <desc>Created with Sketch.</desc>
    <defs></defs>
    <g id="Page-1" stroke="none" stroke-width="1" fill="none" fill-rule="evenodd">
        <g id="Desktop-HD" transform="translate(-1085.000000, -1653.000000)">
            <g id="Group-3-Copy-5" transform="translate(977.000000, 1653.000000)">
                <g id="icon-filials" transform="translate(108.000000, 0.000000)">
                    <rect id="Rectangle-5" fill="#E85C4D" x="0" y="0" width="70" height="70"></rect>
                    <g id="worldwide" transform="translate(10.000000, 11.000000)" fill="#FFFFFF">
                        <g id="Group">
                            <path d="M8.55498982,8.91608961 C17.3940937,-0.126680244 31.9358452,-0.299796334 40.9786151,8.53930754 L38.4022403,8.56985743 C37.8421589,8.58004073 37.404277,9.02810591 37.404277,9.58818737 C37.4144603,10.1380855 37.8625255,10.5861507 38.4124236,10.5861507 L38.4226069,10.5861507 L43.4327902,10.5250509 C43.9928717,10.5148676 44.4307536,10.0668024 44.4307536,9.50672098 L44.3696538,4.49653768 C44.3594705,3.93645621 43.9114053,3.48839104 43.3513238,3.49857434 C42.7912424,3.50875764 42.3533605,3.95682281 42.3533605,4.51690428 L42.3839104,7.09327902 C32.5468432,-2.5197556 16.7219959,-2.32627291 7.1089613,7.5107943 C3.7790224,10.9221996 1.49796334,15.1788187 0.530549898,19.8325866 C-0.416496945,24.3641548 -0.0906313646,29.0484725 1.46741344,33.3967413 C1.62016293,33.8040733 2.00712831,34.0688391 2.41446029,34.0688391 C2.52647658,34.0688391 2.63849287,34.0484725 2.75050916,34.0077393 C3.26985743,33.8244399 3.54480652,33.2439919 3.36150713,32.7144603 C0.377800407,24.3743381 2.36354379,15.2501018 8.55498982,8.91608961 L8.55498982,8.91608961 Z" id="Shape"></path>
                            <path d="M7.52647658,42.80611 C12.2209776,47.3885947 18.4022403,49.9038697 24.9501018,49.9038697 L25.2454175,49.9038697 C31.9154786,49.8224033 38.1476578,47.1645621 42.8014257,42.3885947 C46.1415479,38.9771894 48.4124236,34.710387 49.3798371,30.0566191 C50.3268839,25.5250509 50.0010183,20.8407332 48.4429735,16.4924644 C48.2596741,15.9731161 47.6792261,15.698167 47.1496945,15.8814664 C46.6303462,16.0647658 46.3553971,16.6452138 46.5386965,17.1747454 C49.5325866,25.5148676 47.5468432,34.6391039 41.3553971,40.9731161 C37.0682281,45.3519348 31.3452138,47.80611 25.2148676,47.8773931 C19.0947047,47.9486762 13.3105906,45.6268839 8.93177189,41.3498982 L11.5081466,41.3193483 C12.0682281,41.309165 12.50611,40.8610998 12.50611,40.3010183 C12.4959267,39.7511202 12.0478615,39.303055 11.4979633,39.303055 L11.48778,39.303055 L6.47759674,39.3641548 C6.21283096,39.3641548 5.95824847,39.4761711 5.76476578,39.6696538 C5.5814664,39.8631365 5.4796334,40.1177189 5.4796334,40.3824847 L5.5407332,45.392668 C5.5509165,45.9425662 5.99898167,46.3906314 6.54887984,46.3906314 L6.55906314,46.3906314 C7.1191446,46.3804481 7.55702648,45.9323829 7.55702648,45.3723014 L7.52647658,42.80611 L7.52647658,42.80611 Z" id="Shape"></path>
                            <path d="M38.901222,19.1604888 C36.6710794,13.79389 31.6201629,10.2297352 25.8767821,9.88350305 C25.7749491,9.87331976 25.6629328,9.87331976 25.5509165,9.86313646 L25.5101833,9.86313646 C25.4490835,9.86313646 25.3879837,9.85295316 25.3268839,9.85295316 L25.296334,9.85295316 C25.1843177,9.85295316 25.0723014,9.84276986 24.9501018,9.84276986 C22.9643585,9.84276986 21.0295316,10.2297352 19.1863544,10.9934827 C15.4592668,12.5311609 12.5570265,15.4334012 11.0193483,19.1604888 C9.47148676,22.8875764 9.47148676,26.991446 11.0193483,30.7083503 C13.3615071,36.3702648 18.8401222,40.0362525 24.9704684,40.0362525 C25.0519348,40.0362525 25.1232179,40.0362525 25.2046843,40.0260692 C25.2454175,40.0260692 25.296334,40.0362525 25.3370672,40.0362525 C25.3574338,40.0362525 25.3778004,40.0362525 25.3879837,40.0260692 C25.4796334,40.0260692 25.5610998,40.0158859 25.6527495,40.0158859 L25.7545825,40.0158859 C25.7851324,40.0158859 25.805499,40.0158859 25.8360489,40.0057026 C27.5162933,39.914053 29.1659878,39.5372709 30.7443992,38.8855397 C34.4714868,37.3478615 37.3737271,34.4456212 38.9114053,30.7185336 C40.4490835,26.991446 40.4592668,22.8875764 38.9114053,19.1706721 C38.901222,19.1706721 38.901222,19.1706721 38.901222,19.1604888 C38.901222,19.1706721 38.901222,19.1706721 38.901222,19.1604888 L38.901222,19.1604888 Z M19.6955193,12.9792261 C18.5753564,14.4354379 17.6792261,16.3397149 17.0885947,18.5494908 L13.5549898,18.5494908 C14.9297352,16.0851324 17.0682281,14.1401222 19.6955193,12.9792261 L19.6955193,12.9792261 Z M12.6384929,20.5759674 L16.6507128,20.5759674 C16.4164969,21.9507128 16.2942974,23.4171079 16.2942974,24.9547862 C16.2942974,26.4720978 16.4266802,27.9486762 16.6812627,29.3336049 L12.6384929,29.3336049 C11.6201629,26.4822811 11.6201629,23.4171079 12.6384929,20.5759674 L12.6384929,20.5759674 Z M13.5549898,31.3397149 L17.1496945,31.3397149 C17.7810591,33.590224 18.7382892,35.5352342 19.9093686,37.0219959 C17.2413442,35.901833 14.990835,33.9262729 13.5549898,31.3397149 L13.5549898,31.3397149 Z M24.3187373,37.8773931 C22.2107943,37.2562118 20.3370672,34.7307536 19.2678208,31.3397149 L24.3187373,31.3397149 L24.3187373,37.8773931 L24.3187373,37.8773931 L24.3187373,37.8773931 Z M24.3187373,29.3234216 L18.7484725,29.3234216 C18.4633401,27.9384929 18.3105906,26.4619145 18.3105906,24.9446029 C18.3105906,23.4069246 18.4531568,21.9303462 18.697556,20.5657841 L24.3187373,20.5657841 L24.3187373,29.3234216 L24.3187373,29.3234216 Z M24.3187373,18.5596741 L19.1761711,18.5596741 C20.2046843,15.0566191 22.0784114,12.5820774 24.3187373,12.0118126 L24.3187373,18.5596741 L24.3187373,18.5596741 Z M36.3655804,18.5494908 L33.5651731,18.5494908 C33.0458248,16.6044807 32.302444,14.9038697 31.3655804,13.5393075 C33.4327902,14.7002037 35.1741344,16.4211813 36.3655804,18.5494908 L36.3655804,18.5494908 Z M26.3350305,12.0016293 C28.5753564,12.5820774 30.4389002,15.0566191 31.4775967,18.5494908 L26.3350305,18.5494908 L26.3350305,12.0016293 L26.3350305,12.0016293 Z M26.3350305,20.5759674 L31.9562118,20.5759674 C32.2107943,21.9405295 32.3431772,23.4069246 32.3431772,24.9547862 C32.3431772,26.4720978 32.1904277,27.9486762 31.9052953,29.3336049 L26.3350305,29.3336049 L26.3350305,20.5759674 L26.3350305,20.5759674 Z M26.3350305,37.8773931 L26.3350305,31.3397149 L31.385947,31.3397149 C30.3167006,34.7307536 28.4429735,37.2562118 26.3350305,37.8773931 L26.3350305,37.8773931 Z M31.1619145,36.4619145 C32.1496945,35.0668024 32.9541752,33.3152749 33.5142566,31.3397149 L36.3655804,31.3397149 C35.1537678,33.5189409 33.3615071,35.2806517 31.1619145,36.4619145 L31.1619145,36.4619145 Z M37.2820774,29.3234216 L33.9725051,29.3234216 C34.2270876,27.9384929 34.3594705,26.4720978 34.3594705,24.9446029 C34.3594705,23.4069246 34.2372709,21.9405295 34.003055,20.5657841 L37.2820774,20.5657841 C38.3004073,23.4171079 38.3004073,26.4822811 37.2820774,29.3234216 L37.2820774,29.3234216 Z" id="Shape"></path>
                        </g>
                    </g>
                </g>
            </g>
        </g>
    </g>
</svg>