<?xml version="1.0" encoding="UTF-8"?>
<svg width="416px"  viewBox="0 0 516 507" version="1.1" xmlns="http://www.w3.org/2000/svg" xmlns:xlink="http://www.w3.org/1999/xlink">
    <!-- Generator: Sketch 40.3 (33839) - http://www.bohemiancoding.com/sketch -->
    <title>img-process</title>
    <desc>Created with Sketch.</desc>
    <defs></defs>
    <g id="Page-1" stroke="none" stroke-width="1" fill="none" fill-rule="evenodd">
        <g id="Desktop-HD" transform="translate(-832.000000, -807.000000)">
            <g id="img-process" transform="translate(832.000000, 807.000000)">
                <circle id="Oval" fill-opacity="0.2" fill="#D8D8D8" cx="257" cy="238" r="238"></circle>
                <g id="monitor" transform="translate(163.000000, 153.000000)">
                    <path d="M29.3749184,0 L158.625082,0 C174.781305,0 188,13.2186946 188,29.3749184 L188,158.625082 C188,174.781305 174.781305,188 158.625082,188 L29.3749184,188 C13.2186946,188 0,174.781305 0,158.625082 L0,29.3749184 C0,13.2186946 13.2186946,0 29.3749184,0 L29.3749184,0 Z" id="Shape" fill="#E4E7E7"></path>
                    <path d="M29.6786917,12 L159.321308,12 C169.044551,12 177,19.9201043 177,29.600149 L177,126.399851 C177,136.079896 169.044551,144 159.321308,144 L29.6786917,144 C19.9554487,144 12,136.079896 12,126.399851 L12,29.5997766 C12.0003741,19.9197319 19.9554487,12 29.6786917,12 L29.6786917,12 Z" id="Shape" fill="#2B414D"></path>
                    <path d="M31.680089,20 L154.319911,20 C160.743812,20 166,25.2613501 166,31.6923838 L166,122.307616 C166,128.738279 160.744182,134 154.319911,134 L31.680089,134 C25.2561883,134 20,128.73865 20,122.307616 L20,31.6923838 C20,25.2617212 25.2561883,20 31.680089,20 L31.680089,20 Z" id="Shape" fill="#324D5B"></path>
                    <path d="M42,155 C47.5714752,155 52,159.428525 52,165 C52,170.571475 47.5714752,175 42,175 C36.4285248,175 32,170.571475 32,165 C32,159.428525 36.4285248,155 42,155 L42,155 Z" id="Shape" fill="#E2574C"></path>
                    <path d="M46,165 C46,167.26661 44.2666102,169 42,169 C39.7333898,169 38,167.26661 38,165 C38,162.86678 39.7333898,161 42,161 C44.2666102,161 46,162.73339 46,165 Z" id="Shape" fill="#F3B5B0"></path>
                    <path d="M74.3274964,158 C70.2239198,158 67,161.300198 67,165.5 C67,169.700183 70.2242919,173 74.3274964,173 C78.431073,173 81.6549928,169.699802 81.6549928,165.5 C81.6549928,161.299817 78.4307009,158 74.3274964,158 L74.3274964,158 Z M97.7757081,158 C93.6721315,158 90.4482117,161.300198 90.4482117,165.5 C90.4482117,169.700183 93.6725036,173 97.7757081,173 C101.878913,173 105.103204,169.699802 105.103204,165.5 C105.103204,161.299817 101.879285,158 97.7757081,158 L97.7757081,158 Z M121.22392,158 C117.120343,158 113.896423,161.300198 113.896423,165.5 C113.896423,169.700183 117.120715,173 121.22392,173 C125.327124,173 128.551416,169.699802 128.551416,165.5 C128.551788,161.299817 125.327496,158 121.22392,158 L121.22392,158 Z M144.672504,158 C140.568927,158 137.345007,161.300198 137.345007,165.5 C137.345007,169.700183 140.569299,173 144.672504,173 C148.775708,173 152,169.699802 152,165.5 C152,161.299817 148.775708,158 144.672504,158 L144.672504,158 Z" id="Shape" fill="#CCD0D2"></path>
                    <text id="ОПЕРАТОР-ФИСКАЛЬНЫХ" font-family="Roboto-Black, Roboto" font-size="14" font-weight="700" letter-spacing="-0.194444448" fill="#61ADBB">
                        <tspan x="58.7299262" y="64">ОПЕРАТОР</tspan>
                        <tspan x="44.9038629" y="83">ФИСКАЛЬНЫХ</tspan>
                        <tspan x="63.4402669" y="102">ДАННЫХ</tspan>
                    </text>
                </g>
                <g id="boy" transform="translate(220.000000, 404.000000)">
                    <g id="Group">
                        <path d="M69.9170701,96.8029441 L67.6596815,78.8583505 C67.3188217,76.1497828 65.4430892,73.8762516 62.8370382,73.0130452 L54.132293,70.1299312 C52.9369427,69.7338796 51.6256688,69.9861742 50.7038535,70.7665376 L48.1397134,69.917286 C46.6833121,69.4348473 45.7008599,68.0805634 45.7008599,66.5550559 L45.7008599,60.8397742 L53.3832484,57.6591785 C57.3707962,56.0087419 59.9681529,52.1374925 59.9681529,47.8451613 L59.9681529,46.0731183 C62.9230892,46.0731183 65.3184713,43.693043 65.3184713,40.7569892 C65.3184713,39.4326086 64.8300318,38.2223032 64.0236943,37.2915376 C65.5376115,31.8163677 69.7926752,14.4973054 65.3184713,7.08817204 L67.1019108,0 C67.1019108,0 48.3757962,0.443010753 38.566879,3.54408602 L42.133758,0 C42.133758,0 17.0541401,0 11.8168471,8.85866452 L11.8152866,8.86021505 C11.8152866,8.86021505 2.89808917,8.78645376 2.89808917,19.4924731 C2.89808917,23.4109032 5.09773885,33.1952387 6.04207006,37.2162258 C5.19649682,38.1562946 4.68152866,39.3967247 4.68152866,40.7569892 C4.68152866,43.693043 7.07691083,46.0731183 10.0318471,46.0731183 L10.0318471,47.8451613 C10.0318471,52.137271 12.6292038,56.0085204 16.6167516,57.6596215 L24.2993631,60.8402172 L24.2993631,66.5552774 C24.2993631,68.0807849 23.3169108,69.4350688 21.8605096,69.9175075 L19.2963694,70.7667591 C18.3745541,69.9863957 17.0632803,69.7341011 15.8679299,70.1301527 L7.16318471,73.0132667 C4.55691083,73.8764731 2.68117834,76.1500043 2.3405414,78.858572 L0.0831528662,96.8031656 C-0.31611465,99.9760086 2.17378981,102.778495 5.39200637,102.778495 L5.44216561,102.778495 L64.5578344,102.778495 L64.6079936,102.778495 C67.8262102,102.778495 70.3163376,99.9760086 69.9170701,96.8029441 L69.9170701,96.8029441 Z" id="Shape" fill="#FFD7A3"></path>
                        <path d="M45.7006369,60.8402172 L24.2993631,60.8404387 L24.2993631,66.5554989 C24.2993631,67.8311484 23.5891083,68.9546237 22.5121338,69.5810409 C37.4693949,72.1821785 45.7006369,60.8402172 45.7006369,60.8402172 L45.7006369,60.8402172 Z" id="Shape" fill="#FDC88E"></path>
                        <path d="M6.46496815,38.9849462 C6.46496815,38.9849462 2.89808917,24.4821032 2.89808917,19.4924731 C2.89808917,8.78645376 11.8152866,8.86021505 11.8152866,8.86021505 L11.8168471,8.85866452 C17.0541401,0 42.133758,0 42.133758,0 L38.566879,3.54408602 C48.3757962,0.443010753 67.1019108,0 67.1019108,0 L65.3184713,7.08817204 C70.6687898,15.9483871 63.5350318,38.9849462 63.5350318,38.9849462 L6.46496815,38.9849462 L6.46496815,38.9849462 Z" id="Shape" fill="#734A3E"></path>
                        <path d="M42.133758,0 C42.133758,0 17.0541401,0 11.8168471,8.85866452 L11.8152866,8.86021505 C11.8152866,8.86021505 2.89808917,8.78645376 2.89808917,19.4924731 C2.89808917,24.4821032 6.46496815,38.9849462 6.46496815,38.9849462 C6.46496815,38.9849462 43.5457962,22.5197871 67.1019108,0 C67.1019108,0 48.3757962,0.443010753 38.566879,3.54408602 L42.133758,0 L42.133758,0 Z" id="Shape" fill="#623F33"></path>
                        <path d="M59.9681529,35.4408602 L59.9681529,31.8967742 C59.9681529,27.0034989 55.9757006,23.0365591 51.0509554,23.0365591 L18.9490446,23.0365591 C14.0242994,23.0365591 10.0318471,27.0034989 10.0318471,31.8967742 L10.0318471,35.4408602 C7.07691083,35.4408602 4.68152866,37.8209355 4.68152866,40.7569892 C4.68152866,43.693043 7.07691083,46.0731183 10.0318471,46.0731183 L10.0318471,47.8451613 C10.0318471,52.137271 12.6292038,56.0085204 16.6167516,57.6596215 L28.1402229,62.4304043 C30.3137898,63.3303806 32.6451911,63.7935484 34.9997771,63.7935484 L34.9997771,63.7935484 C37.3543631,63.7935484 39.6855414,63.3301591 41.8591083,62.4304043 L53.3832484,57.6594 C57.3707962,56.0087419 59.9681529,52.1374925 59.9681529,47.8451613 L59.9681529,46.0731183 C62.9230892,46.0731183 65.3184713,43.693043 65.3184713,40.7569892 C65.3184713,37.8209355 62.9230892,35.4408602 59.9681529,35.4408602 L59.9681529,35.4408602 Z" id="Shape" fill="#FFE1B2"></path>
                        <path d="M22.5159236,42.5290323 L22.5159236,42.5290323 C21.5350318,42.5290323 20.7324841,41.7316129 20.7324841,40.7569892 L20.7324841,38.9849462 C20.7324841,38.0103226 21.5350318,37.2129032 22.5159236,37.2129032 L22.5159236,37.2129032 C23.4968153,37.2129032 24.2993631,38.0103226 24.2993631,38.9849462 L24.2993631,40.7569892 C24.2993631,41.7316129 23.4968153,42.5290323 22.5159236,42.5290323 L22.5159236,42.5290323 Z" id="Shape" fill="#623F33"></path>
                        <path d="M47.4840764,42.5290323 L47.4840764,42.5290323 C46.5031847,42.5290323 45.7006369,41.7316129 45.7006369,40.7569892 L45.7006369,38.9849462 C45.7006369,38.0103226 46.5031847,37.2129032 47.4840764,37.2129032 L47.4840764,37.2129032 C48.4649682,37.2129032 49.2675159,38.0103226 49.2675159,38.9849462 L49.2675159,40.7569892 C49.2675159,41.7316129 48.4649682,42.5290323 47.4840764,42.5290323 L47.4840764,42.5290323 Z" id="Shape" fill="#623F33"></path>
                        <path d="M35,54.981843 C31.8292675,54.981843 28.8634076,54.2065742 26.8630573,52.8542839 C26.0489172,52.3040645 25.8371338,51.2016323 26.3920064,50.3926946 C26.9448726,49.584643 28.0552866,49.3742129 28.8694268,49.9246538 C30.2714331,50.8720323 32.5633758,51.4379785 35,51.4379785 C37.4366242,51.4379785 39.7285669,50.8720323 41.1305732,49.9246538 C41.9464968,49.3726624 43.0542357,49.583757 43.6079936,50.3926946 C44.1626433,51.2016323 43.9510828,52.3040645 43.1369427,52.8542839 C41.1368153,54.2065742 38.1707325,54.981843 35,54.981843 L35,54.981843 Z" id="Shape" fill="#E4B07B"></path>
                        <path d="M69.9170701,96.8031656 L67.6596815,78.858572 C67.3190446,76.1500043 65.4430892,73.8764731 62.8370382,73.0132667 L54.132293,70.1301527 C52.6163694,69.628 50.9109554,70.1642645 50.0546815,71.5048151 C46.8930892,76.4541312 41.3365605,79.7419355 35,79.7419355 C28.6634395,79.7419355 23.1069108,76.4539097 19.9455414,71.5048151 C19.0892675,70.1642645 17.3838535,69.628 15.8679299,70.1301527 L7.16318471,73.0132667 C4.55691083,73.8764731 2.68117834,76.1500043 2.3405414,78.858572 L0.0831528662,96.8031656 C-0.31611465,99.9760086 2.17401274,102.778716 5.3922293,102.778716 L64.6082166,102.778716 C67.8262102,102.778716 70.3163376,99.9760086 69.9170701,96.8031656 L69.9170701,96.8031656 Z" id="Shape" fill="#00BEA4"></path>
                        <path d="M3.82726115,75.3490409 C3.03541401,76.3451505 2.50528662,77.5485892 2.3405414,78.8583505 L0.0831528662,96.8029441 C-0.31611465,99.9760086 2.17401274,102.778495 5.3922293,102.778495 L15.3821656,102.778495 L15.3821656,91.2453742 C15.3821656,89.5404473 14.763758,87.8928903 13.640414,86.604172 L3.82726115,75.3490409 L3.82726115,75.3490409 Z" id="Shape" fill="#00AB9A"></path>
                        <path d="M66.1727389,75.3490409 C66.964586,76.3451505 67.4947134,77.5485892 67.6594586,78.8583505 L69.9168471,96.8029441 C70.3161146,99.9760086 67.8259873,102.778495 64.6077707,102.778495 L54.6178344,102.778495 L54.6178344,91.2453742 C54.6178344,89.5404473 55.236242,87.8928903 56.359586,86.604172 L66.1727389,75.3490409 L66.1727389,75.3490409 Z" id="Shape" fill="#00AB9A"></path>
                        <path d="M19.3940127,53.9859548 C17.9489809,52.4464925 17.165828,50.4150667 17.165828,48.3098796 L17.165828,28.2282022 C22.842293,27.8053484 40.7393312,26.2674366 51.0511783,23.0365591 L18.9490446,23.0365591 C18.3350955,23.0365591 17.7405414,23.1076624 17.1656051,23.2317054 L17.1656051,23.2150925 C13.0955732,24.0362129 10.0318471,27.6104237 10.0318471,31.8967742 L10.0318471,35.4408602 C7.07691083,35.4408602 4.68152866,37.8209355 4.68152866,40.7569892 C4.68152866,43.693043 7.07691083,46.0731183 10.0318471,46.0731183 L10.0318471,47.8451613 C10.0318471,52.1374925 12.6292038,56.0087419 16.6167516,57.6596215 L28.14,62.4304043 C28.7040127,62.663871 29.2796178,62.8649978 29.8625796,63.0393226 C24.7699682,59.3375247 21.3800955,56.1015527 19.3940127,53.9859548 L19.3940127,53.9859548 Z" id="Shape" fill="#FFD7A3"></path>
                    </g>
                </g>
                <g id="cashier" transform="translate(0.000000, 57.000000)">
                    <g id="Group">
                        <path d="M103.938621,28.4482759 L100.837759,28.4482759 C99.6125862,28.4482759 98.6206897,27.4563793 98.6206897,26.2331034 L98.6206897,13.5944828 C98.6206897,12.3712069 97.6287931,11.3793103 96.4055172,11.3793103 L55.3186207,11.3793103 C54.0953448,11.3793103 53.1034483,12.3712069 53.1034483,13.5944828 L53.1034483,26.2331034 C53.1034483,27.4563793 52.1115517,28.4482759 50.8882759,28.4482759 L30.3448276,28.4482759 L30.3448276,22.7586207 L22.7586207,22.7586207 L22.7586207,28.4482759 L6.06137931,28.4482759 C4.80965517,28.4482759 3.79310345,29.4648276 3.79310345,30.7165517 L3.79310345,84.9712069 C3.79310345,86.2248276 4.80965517,87.2413793 6.06137931,87.2413793 L103.936724,87.2413793 C105.190345,87.2413793 106.206897,86.2248276 106.206897,84.9731034 L106.206897,30.7165517 C106.206897,29.4648276 105.190345,28.4482759 103.938621,28.4482759 L103.938621,28.4482759 Z" id="Shape" fill="#ECF0F1"></path>
                        <path d="M53.1034483,26.2331034 C53.1034483,27.4563793 52.1115517,28.4482759 50.8882759,28.4482759 L30.3448276,28.4482759 L30.3448276,22.7586207 L22.7586207,22.7586207 L22.7586207,28.4482759 L6.06137931,28.4482759 C4.80965517,28.4482759 3.79310345,29.4648276 3.79310345,30.7165517 L3.79310345,84.9712069 C3.79310345,86.2248276 4.80965517,87.2413793 6.06137931,87.2413793 L53.1034483,87.2413793 L53.1034483,26.2331034 L53.1034483,26.2331034 Z" id="Shape" fill="#BDC3C7"></path>
                        <rect id="Rectangle-path" fill="#6D6D6E" x="0" y="94.8275862" width="110" height="15.1724138"></rect>
                        <path d="M36.0344828,104.310345 L9.48275862,104.310345 C8.43586207,104.310345 7.5862069,103.462586 7.5862069,102.413793 C7.5862069,101.365 8.43586207,100.517241 9.48275862,100.517241 L36.0344828,100.517241 C37.0813793,100.517241 37.9310345,101.365 37.9310345,102.413793 C37.9310345,103.462586 37.0813793,104.310345 36.0344828,104.310345 L36.0344828,104.310345 Z" id="Shape" fill="#ECF0F1"></path>
                        <path d="M102.413793,104.310345 L100.517241,104.310345 C99.4703448,104.310345 98.6206897,103.462586 98.6206897,102.413793 C98.6206897,101.365 99.4703448,100.517241 100.517241,100.517241 L102.413793,100.517241 C103.46069,100.517241 104.310345,101.365 104.310345,102.413793 C104.310345,103.462586 103.46069,104.310345 102.413793,104.310345 L102.413793,104.310345 Z" id="Shape" fill="#ECF0F1"></path>
                        <rect id="Rectangle-path" fill="#94B571" x="58.7931034" y="17.0689655" width="34.137931" height="20.862069"></rect>
                        <rect id="Rectangle-path" fill="#8B8A8B" x="7.5862069" y="87.2413793" width="94.8275862" height="7.5862069"></rect>
                        <rect id="Rectangle-path" fill="#F29C1F" x="58.7931034" y="45.5172414" width="7.5862069" height="7.5862069"></rect>
                        <rect id="Rectangle-path" fill="#F29C1F" x="72.0689655" y="45.5172414" width="7.5862069" height="7.5862069"></rect>
                        <rect id="Rectangle-path" fill="#F29C1F" x="85.3448276" y="45.5172414" width="7.5862069" height="7.5862069"></rect>
                        <rect id="Rectangle-path" fill="#F29C1F" x="58.7931034" y="58.7931034" width="7.5862069" height="7.5862069"></rect>
                        <rect id="Rectangle-path" fill="#F29C1F" x="72.0689655" y="58.7931034" width="7.5862069" height="7.5862069"></rect>
                        <rect id="Rectangle-path" fill="#F29C1F" x="85.3448276" y="58.7931034" width="7.5862069" height="7.5862069"></rect>
                        <rect id="Rectangle-path" fill="#F29C1F" x="58.7931034" y="72.0689655" width="7.5862069" height="7.5862069"></rect>
                        <rect id="Rectangle-path" fill="#F29C1F" x="72.0689655" y="72.0689655" width="7.5862069" height="7.5862069"></rect>
                        <rect id="Rectangle-path" fill="#71C285" x="85.3448276" y="72.0689655" width="7.5862069" height="7.5862069"></rect>
                        <path d="M45.5172414,75.862069 L11.3793103,75.862069 C10.3324138,75.862069 9.48275862,75.0143103 9.48275862,73.9655172 C9.48275862,72.9167241 10.3324138,72.0689655 11.3793103,72.0689655 L45.5172414,72.0689655 C46.5641379,72.0689655 47.4137931,72.9167241 47.4137931,73.9655172 C47.4137931,75.0143103 46.5641379,75.862069 45.5172414,75.862069 L45.5172414,75.862069 Z" id="Shape" fill="#6D6D6E"></path>
                        <rect id="Rectangle-path" fill="#F0EDE0" x="15.1724138" y="39.8275862" width="26.5517241" height="34.137931"></rect>
                        <path d="M30.3448276,68.2758621 L20.862069,68.2758621 C19.8151724,68.2758621 18.9655172,67.4281034 18.9655172,66.3793103 C18.9655172,65.3305172 19.8151724,64.4827586 20.862069,64.4827586 L30.3448276,64.4827586 C31.3917241,64.4827586 32.2413793,65.3305172 32.2413793,66.3793103 C32.2413793,67.4281034 31.3917241,68.2758621 30.3448276,68.2758621 L30.3448276,68.2758621 Z" id="Shape" fill="#D4C3A5"></path>
                        <path d="M36.0344828,68.2758621 C35.5413793,68.2758621 35.0482759,68.0672414 34.687931,67.7258621 C34.3465517,67.3655172 34.137931,66.8724138 34.137931,66.3793103 C34.137931,65.8862069 34.3465517,65.3912069 34.687931,65.0327586 C35.4086207,64.3310345 36.6793103,64.3310345 37.3810345,65.0327586 C37.7224138,65.3912069 37.9310345,65.8862069 37.9310345,66.3793103 C37.9310345,66.8724138 37.7224138,67.3655172 37.3810345,67.7258621 C37.0206897,68.0672414 36.5275862,68.2758621 36.0344828,68.2758621 L36.0344828,68.2758621 Z" id="Shape" fill="#D4C3A5"></path>
                        <path d="M36.0344828,49.3103448 L26.5517241,49.3103448 C25.5048276,49.3103448 24.6551724,48.4625862 24.6551724,47.4137931 C24.6551724,46.365 25.5048276,45.5172414 26.5517241,45.5172414 L36.0344828,45.5172414 C37.0813793,45.5172414 37.9310345,46.365 37.9310345,47.4137931 C37.9310345,48.4625862 37.0813793,49.3103448 36.0344828,49.3103448 L36.0344828,49.3103448 Z" id="Shape" fill="#D4C3A5"></path>
                        <path d="M73.9655172,24.6551724 L64.4827586,24.6551724 C63.4358621,24.6551724 62.5862069,23.8074138 62.5862069,22.7586207 C62.5862069,21.7098276 63.4358621,20.862069 64.4827586,20.862069 L73.9655172,20.862069 C75.0124138,20.862069 75.862069,21.7098276 75.862069,22.7586207 C75.862069,23.8074138 75.0124138,24.6551724 73.9655172,24.6551724 L73.9655172,24.6551724 Z" id="Shape" fill="#70845A"></path>
                        <path d="M73.9655172,32.2413793 L64.4827586,32.2413793 C63.4358621,32.2413793 62.5862069,31.3936207 62.5862069,30.3448276 C62.5862069,29.2960345 63.4358621,28.4482759 64.4827586,28.4482759 L73.9655172,28.4482759 C75.0124138,28.4482759 75.862069,29.2960345 75.862069,30.3448276 C75.862069,31.3936207 75.0124138,32.2413793 73.9655172,32.2413793 L73.9655172,32.2413793 Z" id="Shape" fill="#70845A"></path>
                        <path d="M36.0344828,58.7931034 L34.137931,58.7931034 C33.0910345,58.7931034 32.2413793,57.9453448 32.2413793,56.8965517 C32.2413793,55.8477586 33.0910345,55 34.137931,55 L36.0344828,55 C37.0813793,55 37.9310345,55.8477586 37.9310345,56.8965517 C37.9310345,57.9453448 37.0813793,58.7931034 36.0344828,58.7931034 L36.0344828,58.7931034 Z" id="Shape" fill="#D4C3A5"></path>
                        <path d="M22.7586207,58.7931034 L20.862069,58.7931034 C19.8151724,58.7931034 18.9655172,57.9453448 18.9655172,56.8965517 C18.9655172,55.8477586 19.8151724,55 20.862069,55 L22.7586207,55 C23.8055172,55 24.6551724,55.8477586 24.6551724,56.8965517 C24.6551724,57.9453448 23.8055172,58.7931034 22.7586207,58.7931034 L22.7586207,58.7931034 Z" id="Shape" fill="#D4C3A5"></path>
                        <path d="M20.862069,49.3103448 C20.3689655,49.3103448 19.8758621,49.1017241 19.5155172,48.7603448 C19.1741379,48.4 18.9655172,47.9258621 18.9655172,47.4137931 C18.9655172,46.9206897 19.1741379,46.4256897 19.5155172,46.0672414 C20.2172414,45.3655172 21.487931,45.3655172 22.2086207,46.0672414 C22.55,46.4256897 22.7586207,46.9206897 22.7586207,47.4137931 C22.7586207,47.9258621 22.55,48.4 22.2086207,48.7603448 C21.8482759,49.1017241 21.3551724,49.3103448 20.862069,49.3103448 L20.862069,49.3103448 Z" id="Shape" fill="#D4C3A5"></path>
                        <path d="M28.4482759,58.7931034 C27.9551724,58.7931034 27.462069,58.5844828 27.1017241,58.2431034 C26.7603448,57.8827586 26.5517241,57.3896552 26.5517241,56.8965517 C26.5517241,56.3825862 26.7603448,55.9084483 27.1017241,55.55 C27.8224138,54.8482759 29.0741379,54.8482759 29.7948276,55.55 C30.1362069,55.9084483 30.3448276,56.4034483 30.3448276,56.8965517 C30.3448276,57.3896552 30.1362069,57.8827586 29.7948276,58.2431034 C29.4344828,58.5844828 28.9413793,58.7931034 28.4482759,58.7931034 L28.4482759,58.7931034 Z" id="Shape" fill="#D4C3A5"></path>
                        <rect id="Rectangle-path" fill="#ECF0F1" x="5.68965517" y="0" width="41.7241379" height="24.6551724"></rect>
                        <rect id="Rectangle-path" fill="#94B571" x="9.48275862" y="3.79310345" width="34.137931" height="17.0689655"></rect>
                        <g transform="translate(11.379310, 5.689655)" id="Shape" fill="#70845A">
                            <path d="M4.51758621,0.146034483 C4.05482759,-0.0455172414 3.53137931,-0.0455172414 3.06862069,0.146034483 C2.83534483,0.242758621 2.62672414,0.381206897 2.45034483,0.557586207 L0.555689655,2.45224138 C-0.185862069,3.1937931 -0.185862069,4.39241379 0.555689655,5.13396552 C0.925517241,5.5037931 1.41103448,5.68965517 1.89655172,5.68965517 L1.89655172,11.3793103 C1.89655172,12.4281034 2.7462069,13.2758621 3.79310345,13.2758621 C4.84,13.2758621 5.68965517,12.4281034 5.68965517,11.3793103 L5.68965517,1.89655172 C5.68965517,1.65 5.63844828,1.40344828 5.54362069,1.17206897 C5.35206897,0.707413793 4.98224138,0.337586207 4.51758621,0.146034483 L4.51758621,0.146034483 Z"></path>
                            <path d="M21.5865517,0.146034483 C21.1237931,-0.0455172414 20.6003448,-0.0455172414 20.1375862,0.146034483 C19.9043103,0.242758621 19.6956897,0.381206897 19.5193103,0.557586207 L17.6246552,2.45224138 C16.8831034,3.1937931 16.8831034,4.39241379 17.6246552,5.13396552 C17.9944828,5.5037931 18.48,5.68965517 18.9655172,5.68965517 L18.9655172,11.3793103 C18.9655172,12.4281034 19.8151724,13.2758621 20.862069,13.2758621 C21.9089655,13.2758621 22.7586207,12.4281034 22.7586207,11.3793103 L22.7586207,1.89655172 C22.7586207,1.65 22.7074138,1.40344828 22.6125862,1.17206897 C22.4210345,0.707413793 22.0512069,0.337586207 21.5865517,0.146034483 L21.5865517,0.146034483 Z"></path>
                            <path d="M11.935,8.14189655 L10.0384483,10.0384483 C9.29689655,10.78 9.29689655,11.9786207 10.0384483,12.7201724 C10.4082759,13.09 10.8937931,13.2758621 11.3793103,13.2758621 C11.8648276,13.2758621 12.3503448,13.09 12.7201724,12.7201724 L14.6167241,10.8236207 C15.3582759,10.082069 15.3582759,8.88344828 14.6167241,8.14189655 C13.8751724,7.40034483 12.6765517,7.40034483 11.935,8.14189655 L11.935,8.14189655 Z"></path>
                            <path d="M30.1987931,1.17206897 C30.0072414,0.707413793 29.6374138,0.337586207 29.1727586,0.146034483 C28.71,-0.0455172414 28.1865517,-0.0455172414 27.7237931,0.146034483 C27.4905172,0.242758621 27.2818966,0.381206897 27.1055172,0.557586207 L25.2108621,2.45224138 C24.4693103,3.1937931 24.4693103,4.39241379 25.2108621,5.13396552 C25.5806897,5.5037931 26.0662069,5.68965517 26.5517241,5.68965517 L26.5517241,11.3793103 C26.5517241,12.4281034 27.4013793,13.2758621 28.4482759,13.2758621 C29.4951724,13.2758621 30.3448276,12.4281034 30.3448276,11.3793103 L30.3448276,1.89655172 C30.3448276,1.65 30.2936207,1.40344828 30.1987931,1.17206897 L30.1987931,1.17206897 Z"></path>
                        </g>
                    </g>
                </g>
                <g id="hostel" transform="translate(398.000000, 54.000000)">
                    <g id="XMLID_5_" transform="translate(0.000000, 21.000000)">
                        <path d="M14.75,66.447471 C10.0116444,67.8636258 6.55555556,72.2673935 6.55555556,77.483871 C6.55555556,78.0425677 6.59718333,78.5913935 6.67388333,79.1290323 L4.91666667,79.1290323 C2.20135556,79.1290323 0,81.3388129 0,84.0645161 C0,86.7902194 2.20135556,89 4.91666667,89 L14.75,89 L14.75,66.447471 L14.75,66.447471 Z" id="XMLID_2285_" fill="#64C37D"></path>
                        <path d="M113.083333,79.1290323 L111.326117,79.1290323 C111.402817,78.5913935 111.444444,78.0425677 111.444444,77.483871 C111.444444,72.2673935 107.988356,67.8636258 103.25,66.447471 L103.25,89 L113.083333,89 C115.798644,89 118,86.7902194 118,84.0645161 C118,81.3388129 115.798644,79.1290323 113.083333,79.1290323 L113.083333,79.1290323 Z" id="XMLID_2286_" fill="#64C37D"></path>
                        <path d="M49.1666667,69.2580645 L59,69.2580645 L59,0.161290323 L55.6186444,0.161290323 L14.75,0.161290323 L14.75,89 L39.3333333,89 L39.3333333,69.2580645 L49.1666667,69.2580645 L49.1666667,69.2580645 Z M44.25,10.0322581 L54.0833333,10.0322581 L54.0833333,19.9032258 L44.25,19.9032258 L44.25,10.0322581 L44.25,10.0322581 Z M44.25,29.7741935 L54.0833333,29.7741935 L54.0833333,39.6451613 L44.25,39.6451613 L44.25,29.7741935 L44.25,29.7741935 Z M44.25,49.516129 L54.0833333,49.516129 L54.0833333,59.3870968 L44.25,59.3870968 L44.25,49.516129 L44.25,49.516129 Z M34.4166667,59.3870968 L24.5833333,59.3870968 L24.5833333,49.516129 L34.4166667,49.516129 L34.4166667,59.3870968 L34.4166667,59.3870968 Z M34.4166667,39.6451613 L24.5833333,39.6451613 L24.5833333,29.7741935 L34.4166667,29.7741935 L34.4166667,39.6451613 L34.4166667,39.6451613 Z M34.4166667,19.9032258 L24.5833333,19.9032258 L24.5833333,10.0322581 L34.4166667,10.0322581 L34.4166667,19.9032258 L34.4166667,19.9032258 Z" id="XMLID_2287_" fill="#DEDDE0"></path>
                        <path d="M103.25,0.161290323 L59,0.161290323 L59,69.2580645 L68.8333333,69.2580645 L78.6666667,69.2580645 L78.6666667,89 L103.25,89 L103.25,0.161290323 L103.25,0.161290323 Z M73.75,59.3870968 L63.9166667,59.3870968 L63.9166667,49.516129 L73.75,49.516129 L73.75,59.3870968 L73.75,59.3870968 Z M73.75,39.6451613 L63.9166667,39.6451613 L63.9166667,29.7741935 L73.75,29.7741935 L73.75,39.6451613 L73.75,39.6451613 Z M73.75,19.9032258 L63.9166667,19.9032258 L63.9166667,10.0322581 L73.75,10.0322581 L73.75,19.9032258 L73.75,19.9032258 Z M83.5833333,10.0322581 L93.4166667,10.0322581 L93.4166667,19.9032258 L83.5833333,19.9032258 L83.5833333,10.0322581 L83.5833333,10.0322581 Z M83.5833333,29.7741935 L93.4166667,29.7741935 L93.4166667,39.6451613 L83.5833333,39.6451613 L83.5833333,29.7741935 L83.5833333,29.7741935 Z M83.5833333,49.516129 L93.4166667,49.516129 L93.4166667,59.3870968 L83.5833333,59.3870968 L83.5833333,49.516129 L83.5833333,49.516129 Z" id="XMLID_2295_" fill="#CDCDD0"></path>
                        <rect id="XMLID_2303_" fill="#818085" x="49.1666667" y="69.2580645" width="9.83333333" height="19.7419355"></rect>
                        <rect id="XMLID_2304_" fill="#565659" x="59" y="69.2580645" width="9.83333333" height="19.7419355"></rect>
                        <rect id="XMLID_2305_" fill="#FFFFFF" x="39.3333333" y="69.2580645" width="9.83333333" height="19.7419355"></rect>
                        <rect id="XMLID_2306_" fill="#FFFFFF" x="68.8333333" y="69.2580645" width="9.83333333" height="19.7419355"></rect>
                        <rect id="XMLID_2307_" fill="#FFFFFF" x="24.5833333" y="29.7741935" width="9.83333333" height="9.87096774"></rect>
                        <rect id="XMLID_2308_" fill="#FFFFFF" x="44.25" y="29.7741935" width="9.83333333" height="9.87096774"></rect>
                        <rect id="XMLID_2309_" fill="#FFFFFF" x="63.9166667" y="29.7741935" width="9.83333333" height="9.87096774"></rect>
                        <rect id="XMLID_2310_" fill="#FFFFFF" x="83.5833333" y="29.7741935" width="9.83333333" height="9.87096774"></rect>
                        <rect id="XMLID_2311_" fill="#FFFFFF" x="24.5833333" y="10.0322581" width="9.83333333" height="9.87096774"></rect>
                        <rect id="XMLID_2312_" fill="#FFFFFF" x="44.25" y="10.0322581" width="9.83333333" height="9.87096774"></rect>
                        <rect id="XMLID_2313_" fill="#FFFFFF" x="63.9166667" y="10.0322581" width="9.83333333" height="9.87096774"></rect>
                        <rect id="XMLID_2314_" fill="#FFFFFF" x="83.5833333" y="10.0322581" width="9.83333333" height="9.87096774"></rect>
                        <rect id="XMLID_2315_" fill="#FFFFFF" x="24.5833333" y="49.516129" width="9.83333333" height="9.87096774"></rect>
                        <rect id="XMLID_2316_" fill="#FFFFFF" x="44.25" y="49.516129" width="9.83333333" height="9.87096774"></rect>
                        <rect id="XMLID_2317_" fill="#FFFFFF" x="63.9166667" y="49.516129" width="9.83333333" height="9.87096774"></rect>
                        <rect id="XMLID_2318_" fill="#FFFFFF" x="83.5833333" y="49.516129" width="9.83333333" height="9.87096774"></rect>
                    </g>
                    <text id="ФНС" font-family="Roboto-Black, Roboto" font-size="20" font-weight="700" letter-spacing="2" fill="#565659">
                        <tspan x="33.6445312" y="21">ФН</tspan>
                        <tspan x="68.5039062" y="21">С</tspan>
                    </text>
                </g>
            </g>
        </g>
    </g>
</svg>
