<?xml version="1.0" encoding="UTF-8"?>
<svg width="215px" height="59px" viewBox="0 0 215 59" version="1.1" xmlns="http://www.w3.org/2000/svg" xmlns:xlink="http://www.w3.org/1999/xlink">
    <!-- Generator: Sketch 40.3 (33839) - http://www.bohemiancoding.com/sketch -->
    <title>os-logo</title>
    <desc>Created with Sketch.</desc>
    <defs></defs>
    <g id="Page-1" stroke="none" stroke-width="1" fill="none" fill-rule="evenodd">
        <g id="Desktop-HD" transform="translate(-133.000000, -70.000000)">
            <g id="os-logo" transform="translate(133.000000, 70.000000)">
                <path d="M79.8710938,29.1699219 C79.8710938,30.9212327 79.3160863,32.3649032 78.2060547,33.5009766 C77.0960231,34.63705 75.6458423,35.2050781 73.8554688,35.2050781 C72.0520743,35.2050781 70.5905004,34.63705 69.4707031,33.5009766 C68.3509059,32.3649032 67.7910156,30.9212327 67.7910156,29.1699219 L67.7910156,26.6113281 C67.7910156,24.8665277 68.3492783,23.4244849 69.4658203,22.2851562 C70.5823624,21.1458276 72.0390535,20.5761719 73.8359375,20.5761719 C75.6198006,20.5761719 77.071609,21.1458276 78.1914062,22.2851562 C79.3112035,23.4244849 79.8710938,24.8665277 79.8710938,26.6113281 L79.8710938,29.1699219 Z M76.5800781,26.5917969 C76.5800781,25.5761668 76.3408227,24.7428418 75.8623047,24.0917969 C75.3837867,23.440752 74.7083377,23.1152344 73.8359375,23.1152344 C72.944006,23.1152344 72.2620466,23.4391244 71.7900391,24.0869141 C71.3180315,24.7347038 71.0820312,25.5696563 71.0820312,26.5917969 L71.0820312,29.1699219 C71.0820312,30.1985729 71.3212867,31.0384082 71.7998047,31.6894531 C72.2783227,32.340498 72.9635372,32.6660156 73.8554688,32.6660156 C74.7213585,32.6660156 75.3919247,32.340498 75.8671875,31.6894531 C76.3424503,31.0384082 76.5800781,30.1985729 76.5800781,29.1699219 L76.5800781,26.5917969 Z M90.7261285,35 L87.4253472,35 L87.4253472,31.0839844 L84.5444878,31.0839844 L84.5444878,35 L81.2534722,35 L81.2534722,24.4335938 L84.5444878,24.4335938 L84.5444878,28.5546875 L87.4253472,28.5546875 L87.4253472,24.4335938 L90.7261285,24.4335938 L90.7261285,35 Z M101.688585,24.4335938 L101.688585,35 L98.3975694,35 L98.3975694,26.9726562 L96.3663194,26.9726562 L96.3663194,28.9355469 C96.3663194,31.0188906 96.024526,32.5504508 95.3409288,33.5302734 C94.6573316,34.510096 93.4952339,35 91.8546007,35 L91.45421,35 L91.376085,32.4511719 L91.6397569,32.4511719 C92.2712705,32.4511719 92.6667743,32.221682 92.8262804,31.7626953 C92.9857864,31.3037086 93.0655382,30.3613353 93.0655382,28.9355469 L93.0655382,24.4335938 L101.688585,24.4335938 Z M109.291667,34.9902344 C109.20052,34.8209627 109.117513,34.6321625 109.042643,34.4238281 C108.967773,34.2154938 108.904297,34.0006521 108.852214,33.7792969 C108.539712,34.215497 108.162112,34.5621732 107.719401,34.8193359 C107.27669,35.0764987 106.739586,35.2050781 106.108073,35.2050781 C105.105464,35.2050781 104.290042,34.9153675 103.661784,34.3359375 C103.033525,33.7565075 102.719401,32.9850309 102.719401,32.0214844 C102.719401,30.9733021 103.11165,30.1643909 103.896159,29.5947266 C104.680668,29.0250623 105.87369,28.7402344 107.47526,28.7402344 L108.676432,28.7402344 L108.676432,27.9882812 C108.676432,27.5390603 108.570639,27.1940116 108.359049,26.953125 C108.14746,26.7122384 107.820315,26.5917969 107.377604,26.5917969 C106.999998,26.5917969 106.718425,26.6813142 106.532878,26.8603516 C106.34733,27.0393889 106.254557,27.3177064 106.254557,27.6953125 L103.061198,27.6855469 L103.041667,27.6269531 C102.996093,26.6634066 103.39648,25.8577506 104.242839,25.2099609 C105.089197,24.5621712 106.208977,24.2382812 107.602214,24.2382812 C108.904303,24.2382812 109.960608,24.5637988 110.771159,25.2148438 C111.58171,25.8658887 111.986979,26.7968689 111.986979,28.0078125 L111.986979,31.9921875 C111.986979,32.5585966 112.034179,33.0826799 112.128581,33.5644531 C112.222982,34.0462264 112.364582,34.5247372 112.553385,35 L109.291667,34.9902344 Z M107.113932,32.8515625 C107.439455,32.8515625 107.738931,32.786459 108.01237,32.65625 C108.285809,32.526041 108.507161,32.3567719 108.676432,32.1484375 L108.676432,30.4980469 L107.504557,30.4980469 C106.983721,30.4980469 106.604493,30.6249987 106.366862,30.8789062 C106.129231,31.1328138 106.010417,31.4550762 106.010417,31.8457031 C106.010417,32.1451838 106.112955,32.3876944 106.318034,32.5732422 C106.523113,32.75879 106.78841,32.8515625 107.113932,32.8515625 L107.113932,32.8515625 Z M119.677951,24.4335938 L122.978733,24.4335938 L122.978733,35 L119.677951,35 L119.677951,29.1992188 L119.619358,29.1894531 L116.777561,35 L113.467014,35 L113.467014,24.4335938 L116.777561,24.4335938 L116.777561,30.2148438 L116.836154,30.2246094 L119.677951,24.4335938 Z M121.748264,19.7167969 L121.767795,19.7753906 C121.800347,20.6412804 121.491106,21.3476535 120.840061,21.8945312 C120.189016,22.441409 119.316629,22.7148438 118.222873,22.7148438 C117.122607,22.7148438 116.246965,22.441409 115.59592,21.8945312 C114.944875,21.3476535 114.638889,20.6412804 114.677951,19.7753906 L114.697483,19.7167969 L117.070529,19.7167969 C117.070529,20.022788 117.163302,20.2734365 117.34885,20.46875 C117.534398,20.6640635 117.825736,20.7617188 118.222873,20.7617188 C118.6135,20.7617188 118.901583,20.6640635 119.087131,20.46875 C119.272679,20.2734365 119.365451,20.022788 119.365451,19.7167969 L121.748264,19.7167969 Z M133.87283,35 L130.572049,35 L130.572049,31.0839844 L127.691189,31.0839844 L127.691189,35 L124.400174,35 L124.400174,24.4335938 L127.691189,24.4335938 L127.691189,28.5546875 L130.572049,28.5546875 L130.572049,24.4335938 L133.87283,24.4335938 L133.87283,35 Z" id="Онлайн" fill="#61ADBB"></path>
                <path d="M147.1875,30.0097656 L147.207031,30.0683594 C147.141927,31.7350344 146.648768,33.0078081 145.727539,33.8867188 C144.80631,34.7656294 143.470061,35.2050781 141.71875,35.2050781 C139.960929,35.2050781 138.531907,34.6647189 137.431641,33.5839844 C136.331375,32.5032498 135.78125,31.100269 135.78125,29.375 L135.78125,26.40625 C135.78125,24.6874914 136.310216,23.2861382 137.368164,22.2021484 C138.426112,21.1181586 139.801424,20.5761719 141.494141,20.5761719 C143.291025,20.5761719 144.664709,21.0286413 145.615234,21.9335938 C146.56576,22.8385462 147.102864,24.1243406 147.226562,25.7910156 L147.207031,25.8496094 L143.994141,25.8496094 C143.948567,24.9251256 143.741864,24.2382835 143.374023,23.7890625 C143.006183,23.3398415 142.379562,23.1152344 141.494141,23.1152344 C140.745439,23.1152344 140.156252,23.4163381 139.726562,24.0185547 C139.296873,24.6207712 139.082031,25.4101514 139.082031,26.3867188 L139.082031,29.375 C139.082031,30.3580778 139.316404,31.1523407 139.785156,31.7578125 C140.253909,32.3632843 140.898433,32.6660156 141.71875,32.6660156 C142.513025,32.6660156 143.07617,32.4544292 143.408203,32.03125 C143.740236,31.6080708 143.929036,30.9342494 143.974609,30.0097656 L147.1875,30.0097656 Z M154.644097,24.4335938 L157.944878,24.4335938 L157.944878,35 L154.644097,35 L154.644097,29.1992188 L154.585503,29.1894531 L151.743707,35 L148.43316,35 L148.43316,24.4335938 L151.743707,24.4335938 L151.743707,30.2148438 L151.8023,30.2246094 L154.644097,24.4335938 Z M163.956163,32.6660156 C164.398874,32.6660156 164.727646,32.5455741 164.942491,32.3046875 C165.157336,32.0638009 165.264757,31.7089867 165.264757,31.2402344 L168.282335,31.2402344 L168.301866,31.2988281 C168.327908,32.4511776 167.929149,33.3902958 167.105577,34.1162109 C166.282005,34.842126 165.232211,35.2050781 163.956163,35.2050781 C162.354593,35.2050781 161.119253,34.7070362 160.250108,33.7109375 C159.380964,32.7148388 158.946398,31.422534 158.946398,29.8339844 L158.946398,29.609375 C158.946398,28.0273358 159.379336,26.7366586 160.245226,25.7373047 C161.111115,24.7379507 162.338317,24.2382812 163.926866,24.2382812 C165.268019,24.2382812 166.338972,24.6126265 167.139757,25.3613281 C167.940542,26.1100298 168.327908,27.1288998 168.301866,28.4179688 L168.282335,28.4765625 L165.264757,28.4765625 C165.264757,27.9752579 165.154081,27.5667333 164.932726,27.2509766 C164.71137,26.9352198 164.376087,26.7773438 163.926866,26.7773438 C163.301863,26.7773438 162.864042,27.0345026 162.61339,27.5488281 C162.362737,28.0631536 162.237413,28.7499957 162.237413,29.609375 L162.237413,29.8339844 C162.237413,30.7194055 162.362737,31.4127579 162.61339,31.9140625 C162.864042,32.4153671 163.311629,32.6660156 163.956163,32.6660156 L163.956163,32.6660156 Z M178.619792,26.953125 L175.289714,26.953125 L175.289714,35 L171.979167,35 L171.979167,26.953125 L168.697917,26.953125 L168.697917,24.4335938 L178.619792,24.4335938 L178.619792,26.953125 Z M184.230686,35.2050781 C182.674688,35.2050781 181.432839,34.7168018 180.5051,33.7402344 C179.577361,32.763667 179.113498,31.5397209 179.113498,30.0683594 L179.113498,29.6972656 C179.113498,28.0891847 179.535043,26.7757212 180.378147,25.7568359 C181.22125,24.7379506 182.427292,24.2317708 183.996311,24.2382812 C185.42861,24.2382812 186.551645,24.6679645 187.365451,25.5273438 C188.179257,26.386723 188.586154,27.552076 188.586154,29.0234375 L188.586154,30.7519531 L182.550998,30.7519531 L182.531467,30.8105469 C182.603082,31.3509142 182.824434,31.7952457 183.195529,32.1435547 C183.566625,32.4918637 184.061412,32.6660156 184.679904,32.6660156 C185.304908,32.6660156 185.804577,32.617188 186.178928,32.5195312 C186.553279,32.4218745 187.026907,32.2526054 187.599826,32.0117188 L188.381076,34.0234375 C187.918834,34.3619809 187.32151,34.6435536 186.589084,34.8681641 C185.856659,35.0927746 185.070534,35.2050781 184.230686,35.2050781 L184.230686,35.2050781 Z M183.996311,26.7773438 C183.521048,26.7773438 183.164606,26.9466129 182.926975,27.2851562 C182.689343,27.6236996 182.544488,28.076169 182.492404,28.6425781 L182.521701,28.6914062 L185.363498,28.6914062 L185.363498,28.4375 C185.363498,27.9036432 185.252822,27.493491 185.031467,27.2070312 C184.810112,26.9205715 184.465063,26.7773438 183.996311,26.7773438 L183.996311,26.7773438 Z M196.277127,31.2792969 L196.33572,31.2792969 L198.699002,24.4335938 L202.839627,24.4335938 L202.839627,35 L199.538845,35 L199.538845,29.3066406 L199.480252,29.296875 L197.409939,35 L195.222439,35 L193.269314,29.609375 L193.21072,29.6191406 L193.21072,35 L189.909939,35 L189.909939,24.4335938 L193.952908,24.4335938 L196.277127,31.2792969 Z M210.852865,34.9902344 C210.761718,34.8209627 210.678711,34.6321625 210.603841,34.4238281 C210.528971,34.2154938 210.465495,34.0006521 210.413411,33.7792969 C210.10091,34.215497 209.723309,34.5621732 209.280599,34.8193359 C208.837888,35.0764987 208.300784,35.2050781 207.669271,35.2050781 C206.666662,35.2050781 205.85124,34.9153675 205.222982,34.3359375 C204.594723,33.7565075 204.280599,32.9850309 204.280599,32.0214844 C204.280599,30.9733021 204.672848,30.1643909 205.457357,29.5947266 C206.241866,29.0250623 207.434888,28.7402344 209.036458,28.7402344 L210.23763,28.7402344 L210.23763,27.9882812 C210.23763,27.5390603 210.131837,27.1940116 209.920247,26.953125 C209.708658,26.7122384 209.381513,26.5917969 208.938802,26.5917969 C208.561196,26.5917969 208.279623,26.6813142 208.094075,26.8603516 C207.908528,27.0393889 207.815755,27.3177064 207.815755,27.6953125 L204.622396,27.6855469 L204.602865,27.6269531 C204.557291,26.6634066 204.957678,25.8577506 205.804036,25.2099609 C206.650395,24.5621712 207.770175,24.2382812 209.163411,24.2382812 C210.465501,24.2382812 211.521806,24.5637988 212.332357,25.2148438 C213.142908,25.8658887 213.548177,26.7968689 213.548177,28.0078125 L213.548177,31.9921875 C213.548177,32.5585966 213.595377,33.0826799 213.689779,33.5644531 C213.78418,34.0462264 213.92578,34.5247372 214.114583,35 L210.852865,34.9902344 Z M208.67513,32.8515625 C209.000653,32.8515625 209.300129,32.786459 209.573568,32.65625 C209.847006,32.526041 210.068358,32.3567719 210.23763,32.1484375 L210.23763,30.4980469 L209.065755,30.4980469 C208.544919,30.4980469 208.165691,30.6249987 207.92806,30.8789062 C207.690428,31.1328138 207.571615,31.4550762 207.571615,31.8457031 C207.571615,32.1451838 207.674153,32.3876944 207.879232,32.5732422 C208.084311,32.75879 208.349608,32.8515625 208.67513,32.8515625 L208.67513,32.8515625 Z" id="Cистема" fill="#E2574C"></path>
                <g id="invoice">
                    <g id="Group">
                        <path d="M50.2717153,3.5 C50.362565,3.5 50.4355839,3.57306871 50.4355839,3.66386861 L50.4355839,55.2417883 L52.9937653,54.1786551 L47.9789843,49.1872318 L46.9147835,48.1279878 L45.8566082,49.1932511 L40.8983965,54.1846745 L43.0214885,54.1793682 L38.0134593,49.1879448 L36.9556215,48.1336146 L35.8967288,49.1868854 L30.8786631,54.1783087 L32.9960907,54.1800634 L27.9946308,49.18864 L26.9325536,48.128694 L25.87296,49.191123 L20.8948578,54.1825463 L23.0172455,54.1807793 L18.0225375,49.189356 L16.959387,48.1269046 L15.8990815,49.1921952 L10.9310158,54.1836186 L13.0558877,54.1821961 L8.07450079,49.1907728 L7.0138223,48.1279572 L5.95209416,49.1897242 L0.960853286,54.1811475 L3.52153285,55.2417883 L3.52153285,3.66386861 C3.52153285,3.57377943 3.5953011,3.5 3.68521898,3.5 L50.2717153,3.5 Z M0.521532847,3.66386861 L0.521532847,55.2417883 L0.521532847,58.8632023 L3.08221241,56.3024291 L8.07345328,51.3110057 L5.95104665,51.3099572 L10.9324335,56.3013805 L11.9955831,57.3666721 L13.0573054,56.2999581 L18.0253711,51.3085347 L15.901915,51.311374 L20.8966231,56.3027973 L21.9587013,57.3641771 L23.0190108,56.3010303 L27.997113,51.3096069 L25.8754421,51.3120899 L30.876902,56.3035132 L31.9347417,57.3592302 L32.9943296,56.3052679 L38.0123953,51.3138445 L35.8956647,51.3127851 L40.9036939,56.3042084 L41.9678975,57.3648833 L43.0267859,56.2989021 L47.9849976,51.3074788 L45.8626215,51.3134982 L50.8774026,56.3049215 L53.4355839,58.8511875 L53.4355839,55.2417883 L53.4355839,3.66386861 C53.4355839,1.91667223 52.0198774,0.5 50.2717153,0.5 L3.68521898,0.5 C1.9383451,0.5 0.521532847,1.91702691 0.521532847,3.66386861 Z" id="Shape" fill="#FFFFFF"></path>
                        <polygon id="Shape" fill="#E2574C" points="28.6423358 38.5837591 8.67664234 38.5837591 8.67664234 41.9080292 28.6423358 41.9080292"></polygon>
                        <path d="M41.9527372,31.9317518 L41.9527372,35.2759124 L45.280292,35.2759124 L45.280292,31.9317518 L41.9527372,31.9317518 L41.9527372,31.9317518 Z M8.67664234,35.2527372 L38.6251825,35.2527372 L38.6251825,31.9284672 L8.67664234,31.9284672 L8.67664234,35.2527372 L8.67664234,35.2527372 Z" id="Shape" fill="#FFFFFF"></path>
                        <path d="M8.67664234,26.9571168 L12.0041971,26.9571168 L12.0041971,8.65529197 L8.67664234,8.65529197 L8.67664234,26.9571168 L8.67664234,26.9571168 Z M15.3319343,26.9571168 L20.3233577,26.9571168 L20.3233577,8.65529197 L15.3319343,8.65529197 L15.3319343,26.9571168 L15.3319343,26.9571168 Z M35.2976277,26.9571168 L36.9614964,26.9571168 L36.9614964,8.65529197 L35.2976277,8.65529197 L35.2976277,26.9571168 L35.2976277,26.9571168 Z M40.2890511,8.65529197 L40.2890511,26.9571168 L45.2804745,26.9571168 L45.2804745,8.65529197 L40.2890511,8.65529197 L40.2890511,8.65529197 Z M28.6423358,26.9571168 L31.9698905,26.9571168 L31.9698905,8.65529197 L28.6423358,8.65529197 L28.6423358,26.9571168 L28.6423358,26.9571168 Z M23.6509124,26.9571168 L25.314781,26.9571168 L25.314781,8.65529197 L23.6509124,8.65529197 L23.6509124,26.9571168 L23.6509124,26.9571168 Z" id="Shape" fill="#61ADBB"></path>
                    </g>
                </g>
            </g>
        </g>
    </g>
</svg>